<svg width="338" height="179" viewBox="0 0 338 179" fill="none" xmlns="http://www.w3.org/2000/svg">
<g filter="url(#filter0_d_36_687)">
<path d="M294.891 10.9082C307.233 16.7225 317.33 28.6042 320.62 41.1488C322.14 47.0524 322.293 49.8385 321.36 56.7483C320.354 64.038 319.855 65.6159 317.231 69.0507C313.39 74.2211 308.995 76.1345 302.728 75.5225C292.918 74.4278 288.982 69.3405 283.032 50.1812C281.035 43.6938 278.856 38.1559 278.248 37.7438C276.823 36.9781 277.02 38.0004 280.831 54.4848C291.066 97.8989 287.367 122.295 268.524 135.516C263.196 139.219 257.814 140.648 249.79 140.486C240.687 140.315 234.325 137.125 229.544 130.3C224.209 122.778 223.287 115.808 226.064 102.36C229.093 87.0897 236.844 70.7565 250.473 50.9238C257.586 40.474 259.529 37.0069 258.69 36.2554C258.271 35.8796 254.07 40.8823 249.292 47.3497C239.063 61.2383 233.634 66.4976 227.406 68.7486C222.253 70.5166 215.209 69.8541 214.284 67.5105C213.3 64.9588 214.466 61.4412 218.063 56.5193C228.871 41.6589 234.068 30.4475 234.844 20.2586C235.183 14.9085 235.482 14.3751 238.27 12.6456C253.903 2.84611 276.529 2.16653 294.891 10.9082Z" fill="#F47316"/>
<path d="M226.66 8.6456C233.212 14.4318 232.494 27.3887 224.947 40.6105C220.8 47.8881 214.557 55.8467 205.079 66.3349C202.113 69.507 199.638 72.6751 199.529 73.2449C199.402 73.9096 201.391 76.8512 203.986 79.712C216.408 93.812 220.161 104.969 217.333 119.194C215.052 130.571 206.539 138.587 194.539 140.714C183.181 142.572 174.592 140.234 172.242 134.565C171.298 132.316 171.629 128.54 173.743 114.965C175.697 102.737 176.145 96.8177 175.588 93.0678C174.808 87.4047 172.082 82.1557 169.714 81.7012C168.387 81.4467 168.351 81.6366 169.408 83.8085C172.887 91.2698 173.594 97.3128 172.009 108.134C171.087 113.963 169.418 121.125 168.284 123.96C162.231 139.635 146.044 151.297 132.449 149.968C110.541 147.93 117.352 119.602 147.853 86.0721C150.612 82.9585 153.05 79.9804 153.159 79.4106C153.268 78.8409 151.865 75.9133 150.16 73.0262C140.926 57.6674 140.26 39.1282 148.426 27.7975C158.28 14.3292 180.942 8.33994 187.122 17.5993C190.201 22.0299 188.999 25.7374 179.827 39.238C179.171 40.0967 179.419 40.3412 180.381 39.9351C181.117 39.6825 184.436 35.6921 187.676 31.0956C191.01 26.5172 195.15 20.8135 196.874 18.4859C205.583 6.3733 219.099 1.97649 226.66 8.6456Z" fill="#F47316"/>
<path d="M115.55 24.0487C125.389 31.6471 131.303 53.5562 129.892 77.8011C129.363 88.2345 123.365 116.423 119.979 124.339C112.746 141.56 104.871 151.371 96.3182 153.963C91.9563 155.194 85.0764 153.677 80.2263 150.285C75.358 146.988 68.3945 136.692 65.381 128.336C59.4708 112.039 56.279 89.7663 57.9884 75.2275C58.5241 70.8997 58.5351 67.2589 58.1562 67.1862C57.6824 67.0953 57.1941 67.5924 56.99 68.144C56.8625 68.8087 56.2685 70.3684 55.8239 71.6615C53.6884 77.1591 53.7756 91.5504 56.0163 108.029C58.2498 123.521 58.2643 125.493 56.8102 133.583C55.2431 141.749 54.9078 142.473 51.5079 145.857C44.1432 153.009 32.0925 153.355 23.5292 146.789C10.0174 136.32 4.97449 114.48 9.94908 88.5556C15.7983 58.0736 34.9919 28.1831 54.3965 19.2058C61.7137 15.884 66.9356 15.803 72.1829 19.1728C78.476 23.2357 79.6712 28.7817 79.9184 54.6247C80.104 69.5272 81.2661 85.9954 82.29 88.8502C82.4831 89.3796 83.0516 89.4887 83.6164 89.1048C84.1813 88.7209 84.2032 83.9992 83.6494 78.1825C81.1539 50.2343 84.8201 31.6404 94.302 24.205C100.774 19.1457 109.232 19.0949 115.55 24.0487Z" fill="#F47316"/>
<path d="M322.555 40.6414L322.557 40.6503C323.331 43.6577 323.786 45.9799 323.907 48.4743C324.028 50.9564 323.813 53.5235 323.342 57.016L323.341 57.0217C322.842 60.6414 322.446 63.0396 321.799 64.9777C321.124 67.0045 320.2 68.4569 318.828 70.254C316.761 73.0349 314.45 75.0629 311.7 76.2831C308.946 77.5051 305.917 77.8434 302.533 77.5131L302.519 77.5117L302.506 77.5102C297.194 76.9174 293.211 75.1763 289.853 70.8528C287.701 68.0823 285.841 64.2892 283.951 59.1978C288.166 78.5756 289.451 94.1609 287.559 106.623C285.487 120.273 279.595 130.191 269.672 137.153L269.665 137.158C263.917 141.154 258.095 142.653 249.752 142.486C244.975 142.396 240.8 141.511 237.148 139.675C233.488 137.835 230.461 135.094 227.909 131.452C225.087 127.472 223.376 123.544 222.778 118.803C222.188 114.121 222.699 108.768 224.104 101.962C226.725 88.7543 232.776 74.8697 242.849 58.8588C237.191 65.517 232.915 68.8839 228.086 70.6295L228.07 70.635L228.055 70.6403C225.181 71.6265 221.843 71.9238 219.072 71.6626C217.686 71.5319 216.345 71.2529 215.229 70.7866C214.185 70.3504 212.953 69.5864 212.424 68.2451L212.421 68.2376L212.418 68.23C211.705 66.3814 211.848 64.3565 212.563 62.2585C212.884 61.3159 213.33 60.3297 213.894 59.297C211.686 61.9228 209.25 64.7021 206.563 67.6759L206.552 67.6885L206.54 67.7009C205.091 69.2508 203.765 70.7958 202.797 72.0116C202.334 72.5933 201.966 73.0831 201.709 73.4518C201.867 73.7342 202.093 74.0953 202.387 74.5245C203.134 75.6155 204.222 76.9952 205.467 78.3684L205.477 78.3791L205.486 78.3899C211.794 85.55 216.019 92.0929 218.273 98.7661C220.539 105.476 220.766 112.183 219.295 119.584L219.294 119.588C216.839 131.827 207.641 140.422 194.888 142.684L194.875 142.686L194.862 142.688C188.997 143.647 183.703 143.55 179.482 142.391C175.271 141.233 171.891 138.936 170.397 135.338M322.555 40.6414L172.242 134.565M322.555 40.6414C319.107 27.4941 308.593 15.1546 295.748 9.1014C276.847 0.103947 253.491 0.745553 237.211 10.9491C235.836 11.8023 234.562 12.6397 233.82 14.2628C233.369 15.2481 233.155 16.4536 233.012 17.9518C232.585 13.6076 230.986 9.79803 227.984 7.14651L227.983 7.14567C223.525 3.21348 217.453 2.6894 211.573 4.62266C205.7 6.55358 199.818 10.9694 195.259 17.3062M322.555 40.6414L195.259 17.3062M170.397 135.338C170.396 135.335 170.395 135.333 170.394 135.331L172.242 134.565M170.397 135.338C170.397 135.338 170.397 135.339 170.397 135.339L172.242 134.565M170.397 135.338C169.73 133.748 169.618 131.833 169.852 128.856C169.955 127.549 170.13 125.976 170.383 124.061M172.242 134.565C171.298 132.316 171.629 128.54 173.743 114.965C175.697 102.737 176.145 96.8177 175.588 93.0678C174.936 88.3366 172.927 83.8944 170.902 82.2956C170.983 82.472 171.084 82.6821 171.206 82.9335L171.213 82.9483L171.22 82.9632C172.866 86.4918 173.918 89.7323 174.434 93.2267C174.434 93.2308 174.435 93.235 174.435 93.2391C175.072 97.5675 174.887 102.286 173.988 108.424L173.986 108.435L173.984 108.447C173.664 110.471 173.252 112.673 172.799 114.814C172.799 114.815 172.799 114.817 172.799 114.818C172.026 118.473 171.135 121.949 170.383 124.061M170.383 124.061C170.302 124.287 170.223 124.498 170.146 124.691C166.969 132.912 161.156 140.045 154.368 144.96C147.597 149.863 139.676 152.683 132.258 151.959C126.336 151.407 121.961 149.017 119.584 144.826C117.865 141.794 117.333 138.061 117.762 133.887C115.333 138.616 112.817 142.62 110.205 145.886C106.109 151.008 101.689 154.425 96.8984 155.877L96.8798 155.883L96.8612 155.888C94.2555 156.623 91.0859 156.503 88.0141 155.808C84.9221 155.109 81.7494 153.788 79.092 151.932C76.3378 150.062 73.2124 146.41 70.4514 142.328C67.6542 138.192 65.0745 133.381 63.4996 129.014C61.4243 123.291 59.6769 116.841 58.3521 110.234C59.2337 116.461 59.702 120.35 59.7952 123.523C59.9025 127.176 59.5121 129.856 58.7786 133.937L58.7766 133.948L58.7744 133.96C58.0046 137.971 57.4925 140.439 56.6812 142.309C55.8117 144.314 54.6297 145.571 52.9189 147.274L52.9101 147.283L52.9013 147.292C44.7591 155.199 31.588 155.489 22.3122 148.376L22.3042 148.37C7.90552 137.214 2.9547 114.393 7.98492 88.1787C10.9598 72.6756 17.3203 57.3454 25.406 44.7368C33.4677 32.1655 43.3735 22.1017 53.5567 17.3906L53.5632 17.3876L53.5697 17.3846C57.3697 15.6596 60.7943 14.6961 64.056 14.68C67.3634 14.6636 70.3546 15.6218 73.2636 17.49L73.2677 17.4926C75.0018 18.6122 76.4817 19.8988 77.6737 21.6794C78.8559 23.4454 79.6791 25.5837 80.272 28.3055C81.2049 32.5878 81.6191 38.5915 81.8109 47.3933C82.0143 45.9131 82.2512 44.4864 82.522 43.1143C84.3556 33.8212 87.7897 26.7701 93.0678 22.6312L93.0702 22.6293C100.244 17.0212 109.716 16.9376 116.779 22.4704C122.21 26.6685 126.298 34.5533 128.872 44.1653C131.465 53.8542 132.604 65.6066 131.889 77.9099C131.615 83.3013 129.952 93.0882 127.963 102.431C127.229 105.878 126.441 109.311 125.649 112.48C130.492 103.948 137.459 94.5269 146.365 84.7363C147.728 83.1972 149.001 81.7039 149.94 80.5349C150.413 79.9463 150.784 79.4609 151.036 79.1032C151.036 79.1026 151.037 79.102 151.037 79.1014C150.923 78.8028 150.754 78.412 150.532 77.9422C150.014 76.8459 149.268 75.4496 148.442 74.0499C138.938 58.2363 138.032 38.7988 146.804 26.6281L146.808 26.6223L146.812 26.6166C152.056 19.4493 160.61 14.3605 168.642 12.2417C172.668 11.1794 176.685 10.8304 180.187 11.4203C183.689 12.0101 186.834 13.5756 188.775 16.4728C189.65 17.7355 190.313 19.0807 190.549 20.6548C190.706 21.7037 190.662 22.7748 190.438 23.9012M170.383 124.061C170.711 121.567 171.17 118.49 171.767 114.657L171.768 114.65C172.147 112.278 172.467 110.155 172.733 108.249C172.734 108.246 172.734 108.243 172.735 108.24C173.845 100.281 174.016 96.0995 173.609 93.3619L173.608 93.3513L173.606 93.3406C173.245 90.7177 172.433 88.2106 171.47 86.3506C170.988 85.4188 170.499 84.7089 170.058 84.2364C169.82 83.9813 169.637 83.8379 169.515 83.7586C169.514 83.7582 169.513 83.7577 169.513 83.7573C169.408 83.6899 169.349 83.6695 169.338 83.666C169.361 83.7125 169.384 83.76 169.408 83.8085C172.887 91.2698 173.594 97.3128 172.009 108.134C171.087 113.963 169.418 121.125 168.284 123.96C162.231 139.635 146.044 151.297 132.449 149.968C110.541 147.93 117.352 119.602 147.853 86.0721C150.612 82.9585 153.05 79.9804 153.159 79.4106C153.268 78.8409 151.865 75.9133 150.16 73.0262C140.926 57.6674 140.26 39.1282 148.426 27.7975C158.28 14.3292 180.942 8.33994 187.122 17.5993C189.573 21.1262 189.311 24.1948 184.476 32.1097M184.476 32.1097C184.991 31.4138 185.517 30.6871 186.041 29.9434L186.05 29.9307L186.059 29.9181C186.89 28.7782 187.771 27.5668 188.653 26.3544C189.253 25.5298 189.853 24.7047 190.438 23.9012M184.476 32.1097L226.66 8.6456C219.099 1.97649 205.583 6.3733 196.874 18.4859C195.581 20.2316 192.929 23.8766 190.277 27.5215C189.393 28.7363 188.51 29.9511 187.676 31.0956C187.162 31.8248 186.646 32.5387 186.139 33.2249C186.626 32.4284 187.072 31.6734 187.478 30.9558C187.478 30.9547 187.479 30.9536 187.48 30.9525C188.629 28.9174 189.452 27.1831 189.965 25.6532C190.167 25.0523 190.325 24.4697 190.438 23.9012M184.476 32.1097L195.259 17.3062M190.438 23.9012C192.435 21.1574 194.252 18.6656 195.259 17.3062M180.586 39.8182C180.504 39.8769 180.435 39.9163 180.381 39.9351C179.419 40.3412 179.171 40.0967 179.827 39.238C179.88 39.1591 179.934 39.0805 179.987 39.0022C180.003 38.9781 180.019 38.954 180.036 38.93C180.176 38.7228 180.315 38.5179 180.451 38.3153C180.638 38.4098 180.839 38.5517 181.02 38.7642C181.136 38.9013 181.224 39.0431 181.289 39.1825C181.025 39.4512 180.803 39.6553 180.632 39.7849C180.616 39.7966 180.601 39.8077 180.586 39.8182ZM169.355 83.5722C169.335 83.5771 169.317 83.5813 169.299 83.585C168.355 81.6237 168.434 81.4557 169.714 81.7012C170.021 81.7602 170.335 81.9 170.649 82.111C170.648 82.1205 170.647 82.1302 170.645 82.14C170.593 82.4901 170.403 82.9419 169.969 83.2734C169.739 83.4483 169.516 83.5318 169.355 83.5722ZM151.179 79.5259C151.187 79.5611 151.183 79.5549 151.177 79.5167C151.178 79.5202 151.179 79.5233 151.179 79.5259ZM151.297 78.7043C151.306 78.6845 151.312 78.674 151.313 78.6738C151.313 78.6737 151.308 78.6835 151.297 78.7043ZM201.383 73.9654C201.382 73.966 201.387 73.9566 201.398 73.936C201.389 73.9546 201.384 73.9647 201.383 73.9654Z" stroke="#313131" stroke-width="4"/>
</g>
<defs>
<filter id="filter0_d_36_687" x="0.0778809" y="0.7948" width="337.862" height="177.592" filterUnits="userSpaceOnUse" color-interpolation-filters="sRGB">
<feFlood flood-opacity="0" result="BackgroundImageFix"/>
<feColorMatrix in="SourceAlpha" type="matrix" values="0 0 0 0 0 0 0 0 0 0 0 0 0 0 0 0 0 0 127 0" result="hardAlpha"/>
<feMorphology radius="8" operator="dilate" in="SourceAlpha" result="effect1_dropShadow_36_687"/>
<feOffset dx="4" dy="12"/>
<feComposite in2="hardAlpha" operator="out"/>
<feColorMatrix type="matrix" values="0 0 0 0 0.192157 0 0 0 0 0.192157 0 0 0 0 0.192157 0 0 0 1 0"/>
<feBlend mode="normal" in2="BackgroundImageFix" result="effect1_dropShadow_36_687"/>
<feBlend mode="normal" in="SourceGraphic" in2="effect1_dropShadow_36_687" result="shape"/>
</filter>
</defs>
</svg>
