<svg width="95" height="64" viewBox="0 0 95 64" fill="none" xmlns="http://www.w3.org/2000/svg">
<g filter="url(#filter0_d_61_52)">
<mask id="path-1-outside-1_61_52" maskUnits="userSpaceOnUse" x="-3" y="29" width="100" height="28" fill="black">
<rect fill="white" x="-3" y="29" width="100" height="28"/>
<path d="M17.592 49.144C17.08 49.144 16.6533 48.9947 16.312 48.696C15.6293 48.1413 15.4373 47.4373 15.736 46.584C15.736 46.5413 15.8853 46.0293 16.184 45.048C16.5253 44.0667 16.9093 42.9573 17.336 41.72C17.5493 40.9947 17.7413 40.376 17.912 39.864C18.0827 39.3093 18.232 38.8187 18.36 38.392C17.208 38.8187 15.8 39.352 14.136 39.992C12.472 40.5893 10.7227 41.2293 8.888 41.912C7.096 42.5947 5.34667 43.256 3.64 43.896C3.17067 44.0667 2.70133 44.0453 2.232 43.832C1.72 43.576 1.35733 43.192 1.144 42.68C0.973333 42.2107 1.016 41.7413 1.272 41.272C1.48533 40.76 1.848 40.3973 2.36 40.184C4.28 39.5013 6.264 38.7973 8.312 38.072C10.36 37.304 12.2587 36.6 14.008 35.96C15.7573 35.2773 17.1867 34.7227 18.296 34.296C19.4053 33.8693 19.96 33.656 19.96 33.656C20.1733 33.6133 20.3867 33.592 20.6 33.592C20.8133 33.5493 21.0053 33.5707 21.176 33.656C21.7733 33.7413 22.2 34.0827 22.456 34.68C22.6693 35.0213 22.7547 35.4693 22.712 36.024C22.712 36.536 22.6053 37.2827 22.392 38.264C22.264 38.8187 22.0933 39.4373 21.88 40.12C21.7093 40.76 21.4747 41.5067 21.176 42.36C21.1333 42.5307 21.0907 42.68 21.048 42.808C21.0053 42.936 20.9627 43.0853 20.92 43.256C22.6267 42.3173 24.7173 41.336 27.192 40.312C27.6613 40.0987 28.1307 40.0987 28.6 40.312C29.112 40.4827 29.4533 40.8027 29.624 41.272C29.88 41.7413 29.9013 42.232 29.688 42.744C29.4747 43.256 29.1333 43.6187 28.664 43.832C26.744 44.6853 25.016 45.496 23.48 46.264C21.9867 47.032 20.792 47.6507 19.896 48.12C19 48.5893 18.552 48.824 18.552 48.824C18.296 49.0373 17.976 49.144 17.592 49.144ZM35.939 52.92C35.7257 52.92 35.5123 52.8987 35.299 52.856C35.0857 52.856 34.851 52.8347 34.595 52.792C34.083 52.6213 33.6563 52.2587 33.315 51.704C33.1443 51.3627 33.059 50.8933 33.059 50.296C33.059 49.6987 33.251 48.7173 33.635 47.352C34.019 45.9867 34.6377 43.96 35.491 41.272C34.5523 41.6133 33.4643 42.0187 32.227 42.488C31.0323 42.9573 29.795 43.4267 28.515 43.896C28.0457 44.0667 27.5763 44.0453 27.107 43.832C26.595 43.576 26.2323 43.192 26.019 42.68C25.8483 42.2107 25.891 41.7413 26.147 41.272C26.3603 40.76 26.723 40.3973 27.235 40.184C29.0697 39.5013 30.7763 38.8613 32.355 38.264C33.9763 37.6667 35.299 37.176 36.323 36.792C37.347 36.408 37.859 36.216 37.859 36.216C38.2857 36.0453 38.691 36.024 39.075 36.152C39.6297 36.28 40.035 36.6 40.291 37.112C40.5043 37.496 40.5683 37.8373 40.483 38.136C40.4403 38.4347 40.3763 38.7547 40.291 39.096C40.2057 39.2667 40.1417 39.4587 40.099 39.672C40.0563 39.8427 39.9923 40.056 39.907 40.312C39.6083 41.0373 39.2883 41.9333 38.947 43C38.6483 44.024 38.3283 45.0693 37.987 46.136C37.7737 46.7333 37.603 47.2453 37.475 47.672C37.347 48.0987 37.2403 48.4827 37.155 48.824C37.9657 48.6533 39.139 48.1627 40.675 47.352C41.9977 46.6267 43.4057 45.7947 44.899 44.856C46.435 43.8747 47.9923 42.8507 49.571 41.784C49.9123 41.5707 50.2537 41.3573 50.595 41.144C50.979 40.9307 51.3203 40.696 51.619 40.44C52.0883 40.1413 52.579 40.056 53.091 40.184C53.6457 40.2693 54.0723 40.5467 54.371 41.016C54.6697 41.4427 54.755 41.912 54.627 42.424C54.5417 42.936 54.2643 43.3413 53.795 43.64C53.4537 43.896 53.091 44.152 52.707 44.408C52.3657 44.6213 52.003 44.856 51.619 45.112C49.9977 46.1787 48.419 47.2027 46.883 48.184C45.347 49.1653 43.8963 50.0187 42.531 50.744C39.7577 52.1947 37.5603 52.92 35.939 52.92ZM75.2765 48.504C74.9778 48.504 74.7005 48.4613 74.4445 48.376C73.6338 48.2053 73.0578 47.7147 72.7165 46.904C72.4605 46.1787 72.5245 45.368 72.9085 44.472C73.3352 43.576 73.8898 42.5733 74.5725 41.464C74.8285 41.08 75.0632 40.696 75.2765 40.312C75.5325 39.8853 75.7458 39.5013 75.9165 39.16C76.0018 39.032 76.0658 38.9253 76.1085 38.84C76.1512 38.712 76.1938 38.6053 76.2365 38.52C74.9565 38.3067 73.4632 38.264 71.7565 38.392C70.0925 38.4773 68.2152 38.7973 66.1245 39.352C64.2898 39.8213 62.3058 40.44 60.1725 41.208C58.0818 41.9333 55.8632 42.808 53.5165 43.832C53.0472 44.0027 52.5778 44.0027 52.1085 43.832C51.6392 43.6613 51.2978 43.3413 51.0845 42.872C50.8285 42.4027 50.8072 41.912 51.0205 41.4C51.2338 40.8453 51.5752 40.4827 52.0445 40.312C54.4338 39.2453 56.7165 38.328 58.8925 37.56C61.1112 36.7493 63.2018 36.1093 65.1645 35.64C70.4125 34.3173 74.7005 34.104 78.0285 35C79.0098 35.256 79.6925 35.8533 80.0765 36.792C80.4605 37.7307 80.3752 38.776 79.8205 39.928C79.2658 41.08 78.6045 42.2747 77.8365 43.512C77.7938 43.5973 77.7298 43.704 77.6445 43.832C77.5592 43.96 77.4738 44.1093 77.3885 44.28C78.3698 44.0667 79.8205 43.64 81.7405 43C83.6605 42.36 86.3058 41.4213 89.6765 40.184C90.1458 40.0133 90.6152 40.056 91.0845 40.312C91.5965 40.5253 91.9378 40.888 92.1085 41.4C92.3218 41.8693 92.3218 42.36 92.1085 42.872C91.8952 43.3413 91.5112 43.6827 90.9565 43.896C88.9938 44.5787 87.2018 45.1973 85.5805 45.752C83.9592 46.3067 82.5085 46.776 81.2285 47.16C79.5218 47.672 78.2205 48.0347 77.3245 48.248C76.4285 48.4187 75.7458 48.504 75.2765 48.504Z"/>
</mask>
<path d="M17.592 49.144C17.08 49.144 16.6533 48.9947 16.312 48.696C15.6293 48.1413 15.4373 47.4373 15.736 46.584C15.736 46.5413 15.8853 46.0293 16.184 45.048C16.5253 44.0667 16.9093 42.9573 17.336 41.72C17.5493 40.9947 17.7413 40.376 17.912 39.864C18.0827 39.3093 18.232 38.8187 18.36 38.392C17.208 38.8187 15.8 39.352 14.136 39.992C12.472 40.5893 10.7227 41.2293 8.888 41.912C7.096 42.5947 5.34667 43.256 3.64 43.896C3.17067 44.0667 2.70133 44.0453 2.232 43.832C1.72 43.576 1.35733 43.192 1.144 42.68C0.973333 42.2107 1.016 41.7413 1.272 41.272C1.48533 40.76 1.848 40.3973 2.36 40.184C4.28 39.5013 6.264 38.7973 8.312 38.072C10.36 37.304 12.2587 36.6 14.008 35.96C15.7573 35.2773 17.1867 34.7227 18.296 34.296C19.4053 33.8693 19.96 33.656 19.96 33.656C20.1733 33.6133 20.3867 33.592 20.6 33.592C20.8133 33.5493 21.0053 33.5707 21.176 33.656C21.7733 33.7413 22.2 34.0827 22.456 34.68C22.6693 35.0213 22.7547 35.4693 22.712 36.024C22.712 36.536 22.6053 37.2827 22.392 38.264C22.264 38.8187 22.0933 39.4373 21.88 40.12C21.7093 40.76 21.4747 41.5067 21.176 42.36C21.1333 42.5307 21.0907 42.68 21.048 42.808C21.0053 42.936 20.9627 43.0853 20.92 43.256C22.6267 42.3173 24.7173 41.336 27.192 40.312C27.6613 40.0987 28.1307 40.0987 28.6 40.312C29.112 40.4827 29.4533 40.8027 29.624 41.272C29.88 41.7413 29.9013 42.232 29.688 42.744C29.4747 43.256 29.1333 43.6187 28.664 43.832C26.744 44.6853 25.016 45.496 23.48 46.264C21.9867 47.032 20.792 47.6507 19.896 48.12C19 48.5893 18.552 48.824 18.552 48.824C18.296 49.0373 17.976 49.144 17.592 49.144ZM35.939 52.92C35.7257 52.92 35.5123 52.8987 35.299 52.856C35.0857 52.856 34.851 52.8347 34.595 52.792C34.083 52.6213 33.6563 52.2587 33.315 51.704C33.1443 51.3627 33.059 50.8933 33.059 50.296C33.059 49.6987 33.251 48.7173 33.635 47.352C34.019 45.9867 34.6377 43.96 35.491 41.272C34.5523 41.6133 33.4643 42.0187 32.227 42.488C31.0323 42.9573 29.795 43.4267 28.515 43.896C28.0457 44.0667 27.5763 44.0453 27.107 43.832C26.595 43.576 26.2323 43.192 26.019 42.68C25.8483 42.2107 25.891 41.7413 26.147 41.272C26.3603 40.76 26.723 40.3973 27.235 40.184C29.0697 39.5013 30.7763 38.8613 32.355 38.264C33.9763 37.6667 35.299 37.176 36.323 36.792C37.347 36.408 37.859 36.216 37.859 36.216C38.2857 36.0453 38.691 36.024 39.075 36.152C39.6297 36.28 40.035 36.6 40.291 37.112C40.5043 37.496 40.5683 37.8373 40.483 38.136C40.4403 38.4347 40.3763 38.7547 40.291 39.096C40.2057 39.2667 40.1417 39.4587 40.099 39.672C40.0563 39.8427 39.9923 40.056 39.907 40.312C39.6083 41.0373 39.2883 41.9333 38.947 43C38.6483 44.024 38.3283 45.0693 37.987 46.136C37.7737 46.7333 37.603 47.2453 37.475 47.672C37.347 48.0987 37.2403 48.4827 37.155 48.824C37.9657 48.6533 39.139 48.1627 40.675 47.352C41.9977 46.6267 43.4057 45.7947 44.899 44.856C46.435 43.8747 47.9923 42.8507 49.571 41.784C49.9123 41.5707 50.2537 41.3573 50.595 41.144C50.979 40.9307 51.3203 40.696 51.619 40.44C52.0883 40.1413 52.579 40.056 53.091 40.184C53.6457 40.2693 54.0723 40.5467 54.371 41.016C54.6697 41.4427 54.755 41.912 54.627 42.424C54.5417 42.936 54.2643 43.3413 53.795 43.64C53.4537 43.896 53.091 44.152 52.707 44.408C52.3657 44.6213 52.003 44.856 51.619 45.112C49.9977 46.1787 48.419 47.2027 46.883 48.184C45.347 49.1653 43.8963 50.0187 42.531 50.744C39.7577 52.1947 37.5603 52.92 35.939 52.92ZM75.2765 48.504C74.9778 48.504 74.7005 48.4613 74.4445 48.376C73.6338 48.2053 73.0578 47.7147 72.7165 46.904C72.4605 46.1787 72.5245 45.368 72.9085 44.472C73.3352 43.576 73.8898 42.5733 74.5725 41.464C74.8285 41.08 75.0632 40.696 75.2765 40.312C75.5325 39.8853 75.7458 39.5013 75.9165 39.16C76.0018 39.032 76.0658 38.9253 76.1085 38.84C76.1512 38.712 76.1938 38.6053 76.2365 38.52C74.9565 38.3067 73.4632 38.264 71.7565 38.392C70.0925 38.4773 68.2152 38.7973 66.1245 39.352C64.2898 39.8213 62.3058 40.44 60.1725 41.208C58.0818 41.9333 55.8632 42.808 53.5165 43.832C53.0472 44.0027 52.5778 44.0027 52.1085 43.832C51.6392 43.6613 51.2978 43.3413 51.0845 42.872C50.8285 42.4027 50.8072 41.912 51.0205 41.4C51.2338 40.8453 51.5752 40.4827 52.0445 40.312C54.4338 39.2453 56.7165 38.328 58.8925 37.56C61.1112 36.7493 63.2018 36.1093 65.1645 35.64C70.4125 34.3173 74.7005 34.104 78.0285 35C79.0098 35.256 79.6925 35.8533 80.0765 36.792C80.4605 37.7307 80.3752 38.776 79.8205 39.928C79.2658 41.08 78.6045 42.2747 77.8365 43.512C77.7938 43.5973 77.7298 43.704 77.6445 43.832C77.5592 43.96 77.4738 44.1093 77.3885 44.28C78.3698 44.0667 79.8205 43.64 81.7405 43C83.6605 42.36 86.3058 41.4213 89.6765 40.184C90.1458 40.0133 90.6152 40.056 91.0845 40.312C91.5965 40.5253 91.9378 40.888 92.1085 41.4C92.3218 41.8693 92.3218 42.36 92.1085 42.872C91.8952 43.3413 91.5112 43.6827 90.9565 43.896C88.9938 44.5787 87.2018 45.1973 85.5805 45.752C83.9592 46.3067 82.5085 46.776 81.2285 47.16C79.5218 47.672 78.2205 48.0347 77.3245 48.248C76.4285 48.4187 75.7458 48.504 75.2765 48.504Z" fill="#F47316"/>
<path d="M16.312 48.696L18.946 45.6857L18.8911 45.6376L18.8344 45.5915L16.312 48.696ZM15.736 46.584L19.5114 47.9054L19.736 47.2638V46.584H15.736ZM16.184 45.048L12.406 43.7339L12.3802 43.8082L12.3573 43.8834L16.184 45.048ZM17.336 41.72L21.1175 43.024L21.1475 42.937L21.1735 42.8487L17.336 41.72ZM17.912 39.864L21.7067 41.1289L21.7214 41.0848L21.7351 41.0403L17.912 39.864ZM18.36 38.392L22.1913 39.5414L24.4977 31.8532L16.9707 34.641L18.36 38.392ZM14.136 39.992L15.4875 43.7568L15.5299 43.7416L15.5719 43.7254L14.136 39.992ZM8.888 41.912L7.49307 38.1631L7.47852 38.1685L7.46402 38.174L8.888 41.912ZM3.64 43.896L5.00697 47.6552L5.02577 47.6483L5.04449 47.6413L3.64 43.896ZM2.232 43.832L0.443145 47.4097L0.509377 47.4428L0.57679 47.4735L2.232 43.832ZM1.144 42.68L-2.61517 44.047L-2.58371 44.1335L-2.54831 44.2185L1.144 42.68ZM1.272 41.272L4.78358 43.1874L4.88381 43.0037L4.96431 42.8105L1.272 41.272ZM2.36 40.184L1.01996 36.4151L0.919731 36.4508L0.821536 36.4917L2.36 40.184ZM8.312 38.072L9.64739 41.8425L9.68206 41.8302L9.71649 41.8173L8.312 38.072ZM14.008 35.96L15.3823 39.7165L15.4224 39.7018L15.4622 39.6863L14.008 35.96ZM18.296 34.296L19.7319 38.0294H19.7319L18.296 34.296ZM19.96 33.656L19.1755 29.7337L18.8418 29.8004L18.5241 29.9226L19.96 33.656ZM20.6 33.592V37.592H20.9961L21.3845 37.5143L20.6 33.592ZM21.176 33.656L19.3872 37.2337L19.9677 37.524L20.6103 37.6158L21.176 33.656ZM22.456 34.68L18.7794 36.2557L18.9008 36.5388L19.064 36.8L22.456 34.68ZM22.712 36.024L18.7238 35.7172L18.712 35.8704V36.024H22.712ZM22.392 38.264L26.2896 39.1634L26.2953 39.1386L26.3007 39.1137L22.392 38.264ZM21.88 40.12L18.0621 38.9269L18.0369 39.0076L18.0151 39.0893L21.88 40.12ZM21.176 42.36L17.4006 41.0386L17.3399 41.2118L17.2954 41.3899L21.176 42.36ZM21.048 42.808L17.2533 41.5431L17.2533 41.5431L21.048 42.808ZM20.92 43.256L17.0394 42.2858L14.8163 51.1781L22.8477 46.7609L20.92 43.256ZM27.192 40.312L28.7214 44.0081L28.7848 43.9818L28.8472 43.9535L27.192 40.312ZM28.6 40.312L26.9448 43.9535L27.1359 44.0403L27.3351 44.1067L28.6 40.312ZM29.624 41.272L25.8648 42.639L25.9679 42.9225L26.1124 43.1874L29.624 41.272ZM29.688 42.744L25.9957 41.2055L29.688 42.744ZM28.664 43.832L30.2886 47.4872L30.3039 47.4804L30.3192 47.4735L28.664 43.832ZM23.48 46.264L21.6911 42.6863L21.6708 42.6965L21.6506 42.7068L23.48 46.264ZM19.896 48.12L18.04 44.5767L18.04 44.5767L19.896 48.12ZM18.552 48.824L16.696 45.2807L16.3186 45.4784L15.9913 45.7511L18.552 48.824ZM17.592 45.144C17.727 45.144 17.9457 45.1643 18.2094 45.2566C18.4801 45.3513 18.7334 45.4996 18.946 45.6857L13.678 51.7063C14.843 52.7257 16.2446 53.144 17.592 53.144V45.144ZM18.8344 45.5915C19.006 45.731 19.3489 46.0903 19.5151 46.6995C19.6783 47.2982 19.5652 47.7517 19.5114 47.9054L11.9606 45.2626C11.6081 46.2696 11.4417 47.5018 11.7969 48.8045C12.1551 50.1177 12.9354 51.1064 13.7896 51.8005L18.8344 45.5915ZM19.736 46.584C19.736 46.7214 19.7288 46.8335 19.7229 46.9062C19.7167 46.9825 19.7093 47.0464 19.7032 47.0928C19.6915 47.1833 19.679 47.2548 19.6716 47.2952C19.6567 47.3756 19.643 47.435 19.6384 47.4549C19.628 47.4994 19.6216 47.522 19.6265 47.5039C19.6342 47.475 19.6531 47.4077 19.688 47.288C19.756 47.0548 19.8626 46.6993 20.0107 46.2126L12.3573 43.8834C12.2068 44.378 12.0893 44.7692 12.008 45.048C11.9683 45.1843 11.9311 45.3143 11.9015 45.4241C11.8877 45.4753 11.8673 45.5526 11.8476 45.6371C11.8383 45.677 11.8211 45.7527 11.8039 45.8458C11.803 45.8508 11.736 46.1777 11.736 46.584H19.736ZM19.962 46.3621C20.3047 45.3766 20.6899 44.2638 21.1175 43.024L13.5545 40.416C13.1287 41.6508 12.7459 42.7567 12.406 43.7339L19.962 46.3621ZM21.1735 42.8487C21.3782 42.1525 21.5557 41.5819 21.7067 41.1289L14.1173 38.5991C13.9269 39.1701 13.7204 39.8369 13.4985 40.5913L21.1735 42.8487ZM21.7351 41.0403C21.9078 40.4792 22.0599 39.9793 22.1913 39.5414L14.5287 37.2426C14.4041 37.6581 14.2576 38.1394 14.0889 38.6877L21.7351 41.0403ZM16.9707 34.641C15.7979 35.0754 14.3734 35.615 12.7001 36.2586L15.5719 43.7254C17.2266 43.089 18.6181 42.562 19.7493 42.143L16.9707 34.641ZM12.7845 36.2272C11.1046 36.8303 9.34068 37.4756 7.49307 38.1631L10.2829 45.6609C12.1047 44.983 13.8394 44.3484 15.4875 43.7568L12.7845 36.2272ZM7.46402 38.174C5.67817 38.8544 3.93535 39.5132 2.23551 40.1507L5.04449 47.6413C6.75799 46.9988 8.51383 46.335 10.312 45.65L7.46402 38.174ZM2.27303 40.1368C2.50229 40.0535 2.79293 39.9974 3.11763 40.0121C3.43971 40.0268 3.70306 40.1068 3.88721 40.1905L0.57679 47.4735C1.96495 48.1045 3.51878 48.1963 5.00697 47.6552L2.27303 40.1368ZM4.02086 40.2543C4.14854 40.3181 4.31793 40.4296 4.48405 40.6055C4.65153 40.7828 4.76625 40.9734 4.83631 41.1415L-2.54831 44.2185C-1.95302 45.6472 -0.897403 46.7394 0.443145 47.4097L4.02086 40.2543ZM4.90317 41.313C5.00662 41.5975 5.06666 41.9522 5.03157 42.3381C4.99717 42.7166 4.88232 43.0064 4.78358 43.1874L-2.23958 39.3566C-3.00154 40.7535 -3.20841 42.4156 -2.61517 44.047L4.90317 41.313ZM4.96431 42.8105C4.88653 42.9971 4.74972 43.2271 4.53243 43.4444C4.31514 43.6617 4.08513 43.7985 3.89846 43.8763L0.821536 36.4917C-0.664371 37.1108 -1.80118 38.2476 -2.42031 39.7335L4.96431 42.8105ZM3.70004 43.9529C5.61839 43.2708 7.60084 42.5673 9.64739 41.8425L6.97661 34.3015C4.92716 35.0273 2.94161 35.7319 1.01996 36.4151L3.70004 43.9529ZM9.71649 41.8173C11.7561 41.0525 13.6446 40.3522 15.3823 39.7165L12.6337 32.2035C10.8727 32.8478 8.96387 33.5555 6.90751 34.3267L9.71649 41.8173ZM15.4622 39.6863C17.2085 39.0048 18.6311 38.4528 19.7319 38.0294L16.8601 30.5626C15.7422 30.9926 14.3062 31.5498 12.5538 32.2337L15.4622 39.6863ZM19.7319 38.0294C20.0187 37.9191 20.9705 37.553 20.9799 37.5494C21.0878 37.5079 21.2534 37.4442 21.2919 37.4294C21.3189 37.419 21.3603 37.4031 21.3699 37.3994C21.3762 37.397 21.3875 37.3926 21.3894 37.3919C21.391 37.3913 21.3938 37.3902 21.3943 37.39C21.3947 37.3899 21.3954 37.3896 21.3955 37.3895C21.3956 37.3895 21.3958 37.3894 21.3958 37.3894C21.3958 37.3894 21.3959 37.3894 21.3959 37.3894C21.3959 37.3894 21.3959 37.3894 21.3959 37.3894C21.3959 37.3894 21.3959 37.3894 19.96 33.656C18.5241 29.9226 18.5241 29.9226 18.5241 29.9226C18.5241 29.9226 18.5241 29.9226 18.5241 29.9226C18.524 29.9226 18.524 29.9226 18.524 29.9226C18.524 29.9226 18.524 29.9226 18.524 29.9227C18.524 29.9227 18.5239 29.9227 18.5239 29.9227C18.5239 29.9227 18.5239 29.9227 18.5239 29.9227C18.5237 29.9228 18.5239 29.9227 18.5237 29.9228C18.5236 29.9228 18.5236 29.9228 18.5236 29.9228C18.5235 29.9228 18.5235 29.9228 18.5234 29.9229C18.5233 29.9229 18.5234 29.9229 18.5232 29.923C18.5231 29.923 18.5229 29.9231 18.5228 29.9231C18.5228 29.9231 18.5227 29.9231 18.5227 29.9232C18.5226 29.9232 18.5225 29.9232 18.5225 29.9232C18.5223 29.9233 18.5218 29.9235 18.5215 29.9236C18.5202 29.9241 18.5219 29.9235 18.5204 29.924C18.5203 29.9241 18.5202 29.9241 18.5201 29.9241C18.52 29.9242 18.5199 29.9242 18.5198 29.9243C18.5197 29.9243 18.5196 29.9244 18.5195 29.9244C18.5193 29.9244 18.5192 29.9245 18.5191 29.9245C18.519 29.9246 18.5189 29.9246 18.5187 29.9247C18.5186 29.9247 18.5185 29.9248 18.5184 29.9248C18.5182 29.9249 18.5181 29.9249 18.518 29.925C18.5179 29.925 18.5177 29.9251 18.5176 29.9251C18.5171 29.9253 18.511 29.9276 18.5095 29.9282C18.5073 29.9291 18.5092 29.9284 18.5069 29.9292C18.5067 29.9293 18.5065 29.9294 18.5063 29.9295C18.506 29.9296 18.5058 29.9296 18.5056 29.9297C18.5053 29.9298 18.5051 29.9299 18.5049 29.93C18.5046 29.9301 18.5044 29.9302 18.5042 29.9303C18.5041 29.9303 18.4985 29.9325 18.4981 29.9326C18.4913 29.9352 18.4767 29.9409 18.4656 29.9451C18.4449 29.9531 18.4451 29.953 18.4201 29.9626C18.3931 29.973 18.3344 29.9956 18.2901 30.0126C18.1609 30.0623 18.2546 30.0263 18.1081 30.0826C18.0975 30.0867 18.0925 30.0886 18.0817 30.0928C18.0717 30.0966 18.0647 30.0993 18.0545 30.1032C17.9828 30.1308 18.0703 30.0972 17.9976 30.1251C17.9489 30.1438 17.9271 30.1522 17.8741 30.1726C17.6717 30.2505 17.8078 30.1981 17.5881 30.2826C17.4435 30.3382 17.412 30.3503 17.2501 30.4126C17.2463 30.4141 17.1623 30.4464 17.1575 30.4482C17.1555 30.449 17.1535 30.4498 17.1516 30.4505C17.1496 30.4513 17.1476 30.452 17.1457 30.4528C17.1437 30.4535 17.1417 30.4543 17.1397 30.4551C17.1378 30.4558 17.1358 30.4566 17.1338 30.4573C17.1202 30.4626 17.1236 30.4613 17.1099 30.4665C17.0977 30.4712 17.074 30.4803 17.0616 30.4851C16.9119 30.5427 17.0141 30.5034 16.8601 30.5626L19.7319 38.0294ZM20.7445 37.5783C20.7046 37.5863 20.6553 37.592 20.6 37.592V29.592C20.1181 29.592 19.642 29.6404 19.1755 29.7337L20.7445 37.5783ZM21.3845 37.5143C20.8539 37.6204 20.1217 37.601 19.3872 37.2337L22.9648 30.0783C21.889 29.5404 20.7728 29.4782 19.8155 29.6697L21.3845 37.5143ZM20.6103 37.6158C20.2773 37.5682 19.8469 37.4208 19.4452 37.0995C19.0556 36.7877 18.8617 36.4477 18.7794 36.2557L26.1326 33.1043C25.3778 31.3432 23.8448 29.9967 21.7417 29.6962L20.6103 37.6158ZM19.064 36.8C18.8756 36.4986 18.7884 36.2188 18.7506 36.0204C18.7145 35.8306 18.7237 35.7184 18.7238 35.7172L26.7002 36.3308C26.7839 35.2427 26.6583 33.8565 25.848 32.56L19.064 36.8ZM18.712 36.024C18.712 36.0169 18.7122 36.0445 18.7063 36.1142C18.7005 36.1825 18.6901 36.2773 18.6722 36.4023C18.6361 36.6552 18.5758 36.989 18.4833 37.4143L26.3007 39.1137C26.5286 38.0656 26.712 36.9783 26.712 36.024H18.712ZM18.4944 37.3646C18.3941 37.7992 18.2524 38.3178 18.0621 38.9269L25.6979 41.3131C25.9342 40.5569 26.1339 39.8382 26.2896 39.1634L18.4944 37.3646ZM18.0151 39.0893C17.878 39.6034 17.6769 40.2491 17.4006 41.0386L24.9514 43.6814C25.2725 42.7642 25.5407 41.9166 25.7449 41.1507L18.0151 39.0893ZM17.2954 41.3899C17.2706 41.4892 17.2556 41.5362 17.2533 41.5431L24.8427 44.0729C24.9258 43.8238 24.9961 43.5722 25.0566 43.3301L17.2954 41.3899ZM17.2533 41.5431C17.1702 41.7922 17.0999 42.0438 17.0394 42.2858L24.8006 44.2262C24.8254 44.1268 24.8404 44.0798 24.8427 44.0729L17.2533 41.5431ZM22.8477 46.7609C24.3876 45.9139 26.3364 44.995 28.7214 44.0081L25.6626 36.6159C23.0983 37.677 20.8658 38.7207 18.9923 39.7511L22.8477 46.7609ZM28.8472 43.9535C28.6137 44.0596 28.2865 44.152 27.896 44.152C27.5055 44.152 27.1783 44.0596 26.9448 43.9535L30.2552 36.6705C28.7342 35.9792 27.0578 35.9792 25.5368 36.6705L28.8472 43.9535ZM27.3351 44.1067C27.1271 44.0374 26.8148 43.8893 26.5042 43.5981C26.1861 43.2999 25.9793 42.9538 25.8648 42.639L33.3832 39.905C32.758 38.1859 31.428 37.0383 29.8649 36.5173L27.3351 44.1067ZM26.1124 43.1874C25.9744 42.9344 25.8539 42.583 25.8358 42.1658C25.8178 41.7534 25.906 41.4208 25.9957 41.2055L33.3803 44.2825C34.0397 42.6999 33.9969 40.9357 33.1356 39.3566L26.1124 43.1874ZM25.9957 41.2055C26.0533 41.0672 26.1643 40.8656 26.3592 40.6585C26.5578 40.4476 26.7867 40.2915 27.0088 40.1905L30.3192 47.4735C31.7826 46.8083 32.8104 45.6503 33.3803 44.2825L25.9957 41.2055ZM27.0394 40.1768C25.0758 41.0495 23.2917 41.886 21.6911 42.6863L25.2689 49.8417C26.7403 49.106 28.4122 48.3212 30.2886 47.4872L27.0394 40.1768ZM21.6506 42.7068C20.1533 43.4769 18.9487 44.1007 18.04 44.5767L21.752 51.6633C22.6353 51.2007 23.82 50.5871 25.3094 49.8212L21.6506 42.7068ZM18.04 44.5767C18.0116 44.5915 18.0265 44.5837 17.9983 44.5985C17.9932 44.6012 17.9621 44.6174 17.9573 44.62C17.9427 44.6276 17.9516 44.623 17.937 44.6306C17.9353 44.6315 17.9337 44.6324 17.932 44.6332C17.9303 44.6341 17.9286 44.635 17.927 44.6359C17.9253 44.6368 17.9236 44.6376 17.9219 44.6385C17.9203 44.6394 17.9186 44.6403 17.9169 44.6411C17.9098 44.6449 17.9141 44.6426 17.9069 44.6464C17.9061 44.6468 17.8978 44.6512 17.897 44.6516C17.8953 44.6524 17.8937 44.6533 17.892 44.6542C17.8904 44.655 17.8887 44.6559 17.8871 44.6568C17.8863 44.6572 17.878 44.6615 17.8772 44.6619C17.757 44.7249 17.8417 44.6806 17.725 44.7417C17.7183 44.7451 17.695 44.7574 17.6885 44.7608C17.6767 44.767 17.6914 44.7593 17.6795 44.7655C17.6767 44.767 17.6734 44.7687 17.6706 44.7702C17.6265 44.7933 17.6968 44.7564 17.6528 44.7795C17.6083 44.8028 17.6268 44.7931 17.5832 44.8159C17.5708 44.8224 17.5278 44.8449 17.5163 44.851C17.4927 44.8633 17.4747 44.8728 17.452 44.8847C17.0656 45.0871 17.3624 44.9316 17.032 45.1047C16.9665 45.139 17.0559 45.0921 16.9913 45.126C16.7989 45.2268 17.1448 45.0456 16.9532 45.1459C16.7455 45.2547 17.0892 45.0747 16.885 45.1817C16.7024 45.2773 16.9485 45.1484 16.78 45.2367C16.7489 45.2529 16.7708 45.2415 16.7432 45.2559C16.7173 45.2695 16.7394 45.2579 16.717 45.2697C16.5571 45.3534 16.8576 45.196 16.7012 45.2779C16.699 45.2791 16.7028 45.2771 16.7006 45.2783C16.6983 45.2794 16.7023 45.2774 16.7 45.2786C16.6977 45.2798 16.7012 45.2779 16.6989 45.2791C16.6955 45.2809 16.7005 45.2783 16.6973 45.28C16.6901 45.2837 16.7032 45.2769 16.6963 45.2805C16.6952 45.2811 16.6971 45.2801 16.6961 45.2806C16.696 45.2806 16.696 45.2806 16.696 45.2807C16.696 45.2807 16.696 45.2807 16.696 45.2807C16.696 45.2807 16.696 45.2807 16.696 45.2807C16.696 45.2807 16.696 45.2807 18.552 48.824C20.408 52.3673 20.408 52.3673 20.408 52.3673C20.408 52.3673 20.408 52.3673 20.4081 52.3673C20.4081 52.3673 20.4081 52.3673 20.4081 52.3673C20.4081 52.3673 20.4081 52.3673 20.4081 52.3673C20.4081 52.3673 20.4082 52.3672 20.4082 52.3672C20.4084 52.3671 20.4081 52.3673 20.4084 52.3672C20.4091 52.3667 20.4079 52.3674 20.4088 52.3669C20.4106 52.366 20.4075 52.3676 20.4093 52.3666C20.4114 52.3656 20.4087 52.367 20.411 52.3658C20.4145 52.3639 20.4095 52.3666 20.4133 52.3646C20.4159 52.3632 20.412 52.3653 20.4147 52.3638C20.4194 52.3614 20.4115 52.3655 20.4162 52.363C20.4205 52.3608 20.4153 52.3635 20.4198 52.3611C20.4394 52.3509 20.4086 52.367 20.429 52.3563C20.4445 52.3482 20.4363 52.3525 20.4553 52.3426C20.5708 52.2821 20.373 52.3857 20.492 52.3233C20.6589 52.2359 20.4162 52.3631 20.597 52.2683C20.6621 52.2342 20.6649 52.2328 20.744 52.1913C20.9139 52.1023 20.7492 52.1886 20.933 52.0923C21.0666 52.0223 21.0164 52.0486 21.164 51.9713C21.2582 51.922 21.1976 51.9538 21.2953 51.9026C21.2995 51.9004 21.3253 51.8868 21.3297 51.8845C21.3609 51.8682 21.3335 51.8826 21.3648 51.8661C21.383 51.8566 21.418 51.8383 21.437 51.8283C21.6063 51.7397 21.5688 51.7593 21.752 51.6633L18.04 44.5767ZM15.9913 45.7511C16.2512 45.5345 16.5478 45.3717 16.8551 45.2693C17.1551 45.1693 17.4127 45.144 17.592 45.144V53.144C18.7613 53.144 20.0302 52.799 21.1127 51.8969L15.9913 45.7511ZM35.299 52.856L36.0835 48.9337L35.6951 48.856H35.299V52.856ZM34.595 52.792L33.3301 56.5867L33.6278 56.686L33.9374 56.7376L34.595 52.792ZM33.315 51.704L29.7373 53.4929L29.8161 53.6504L29.9084 53.8004L33.315 51.704ZM33.635 47.352L29.7844 46.269L33.635 47.352ZM35.491 41.272L39.3035 42.4823L41.763 34.735L34.124 37.5128L35.491 41.272ZM32.227 42.488L30.8084 38.748L30.7863 38.7564L30.7644 38.765L32.227 42.488ZM28.515 43.896L29.882 47.6552L29.892 47.6515L28.515 43.896ZM27.107 43.832L25.3181 47.4097L25.3844 47.4428L25.4518 47.4735L27.107 43.832ZM26.019 42.68L22.2598 44.047L22.2913 44.1335L22.3267 44.2185L26.019 42.68ZM26.147 41.272L29.6586 43.1874L29.7588 43.0037L29.8393 42.8105L26.147 41.272ZM27.235 40.184L25.8401 36.4351L25.7678 36.462L25.6965 36.4917L27.235 40.184ZM32.355 38.264L30.9722 34.5106L30.9558 34.5167L30.9394 34.5229L32.355 38.264ZM36.323 36.792L34.9185 33.0467L34.9185 33.0467L36.323 36.792ZM37.859 36.216L39.2635 39.9613L39.3042 39.9461L39.3446 39.9299L37.859 36.216ZM39.075 36.152L37.8101 39.9467L37.9904 40.0068L38.1756 40.0496L39.075 36.152ZM40.291 37.112L36.7133 38.9009L36.7522 38.9786L36.7944 39.0546L40.291 37.112ZM40.483 38.136L36.6369 37.0371L36.5618 37.2998L36.5232 37.5703L40.483 38.136ZM40.291 39.096L43.8687 40.8849L44.0651 40.4921L44.1716 40.0661L40.291 39.096ZM40.099 39.672L43.9796 40.6421L44.0027 40.5498L44.0213 40.4565L40.099 39.672ZM39.907 40.312L43.6057 41.835L43.6582 41.7076L43.7017 41.5769L39.907 40.312ZM38.947 43L35.1373 41.7809L35.1215 41.8303L35.107 41.88L38.947 43ZM37.987 46.136L41.754 47.4813L41.7764 47.4186L41.7967 47.3551L37.987 46.136ZM37.475 47.672L41.3063 48.8214L37.475 47.672ZM37.155 48.824L33.2744 47.8539L31.7241 54.055L37.979 52.7382L37.155 48.824ZM40.675 47.352L42.542 50.8895L42.5703 50.8746L42.5983 50.8592L40.675 47.352ZM44.899 44.856L47.0277 48.2425L47.0401 48.2347L47.0526 48.2268L44.899 44.856ZM49.571 41.784L47.451 38.392L47.3906 38.4298L47.3316 38.4696L49.571 41.784ZM50.595 41.144L48.6524 37.6474L48.5624 37.6974L48.475 37.752L50.595 41.144ZM51.619 40.44L49.4715 37.0654L49.2317 37.218L49.0158 37.403L51.619 40.44ZM53.091 40.184L52.1209 44.0646L52.3001 44.1094L52.4828 44.1375L53.091 40.184ZM54.371 41.016L50.9964 43.1635L51.0436 43.2378L51.0941 43.3098L54.371 41.016ZM54.627 42.424L50.7464 41.4538L50.7077 41.6088L50.6814 41.7664L54.627 42.424ZM53.795 43.64L51.6475 40.2654L51.5179 40.3478L51.395 40.44L53.795 43.64ZM52.707 44.408L54.827 47.8L54.8769 47.7688L54.9258 47.7362L52.707 44.408ZM51.619 45.112L53.8175 48.4537L53.8277 48.447L53.8378 48.4402L51.619 45.112ZM46.883 48.184L49.0366 51.5548L49.0366 51.5548L46.883 48.184ZM42.531 50.744L44.385 54.2884L44.3963 54.2825L44.4076 54.2765L42.531 50.744ZM35.939 48.92C35.9943 48.92 36.0436 48.9257 36.0835 48.9337L34.5145 56.7783C34.981 56.8716 35.4571 56.92 35.939 56.92V48.92ZM35.299 48.856C35.325 48.856 35.3344 48.8573 35.3251 48.8564C35.3161 48.8556 35.2923 48.853 35.2526 48.8464L33.9374 56.7376C34.366 56.809 34.8242 56.856 35.299 56.856V48.856ZM35.8599 48.9973C36.1078 49.0799 36.3198 49.2067 36.4816 49.3442C36.6359 49.4754 36.7071 49.584 36.7216 49.6076L29.9084 53.8004C30.636 54.9829 31.7522 56.0608 33.3301 56.5867L35.8599 48.9973ZM36.8927 49.9151C37.013 50.1557 37.0495 50.331 37.0585 50.3805C37.0679 50.4321 37.059 50.4118 37.059 50.296H29.059C29.059 51.1983 29.1756 52.3695 29.7373 53.4929L36.8927 49.9151ZM37.059 50.296C37.059 50.3695 37.0538 50.2623 37.1286 49.88C37.1973 49.5289 37.3118 49.0528 37.4856 48.435L29.7844 46.269C29.3997 47.6369 29.059 49.092 29.059 50.296H37.059ZM37.4856 48.435C37.851 47.1359 38.4532 45.1606 39.3035 42.4823L31.6785 40.0617C30.8221 42.7594 30.187 44.8375 29.7844 46.269L37.4856 48.435ZM34.124 37.5128C33.1636 37.8621 32.0578 38.2741 30.8084 38.748L33.6456 46.228C34.8709 45.7632 35.9411 45.3646 36.858 45.0312L34.124 37.5128ZM30.7644 38.765C29.5998 39.2225 28.3911 39.681 27.138 40.1405L29.892 47.6515C31.1989 47.1723 32.4648 46.6922 33.6896 46.211L30.7644 38.765ZM27.148 40.1368C27.3773 40.0535 27.6679 39.9974 27.9926 40.0121C28.3147 40.0268 28.5781 40.1068 28.7622 40.1905L25.4518 47.4735C26.84 48.1045 28.3938 48.1963 29.882 47.6552L27.148 40.1368ZM28.8959 40.2543C29.0235 40.3181 29.1929 40.4296 29.3591 40.6055C29.5265 40.7828 29.6412 40.9734 29.7113 41.1415L22.3267 44.2185C22.922 45.6472 23.9776 46.7394 25.3181 47.4097L28.8959 40.2543ZM29.7782 41.313C29.8816 41.5975 29.9417 41.9522 29.9066 42.3381C29.8722 42.7166 29.7573 43.0064 29.6586 43.1874L22.6354 39.3566C21.8735 40.7535 21.6666 42.4156 22.2598 44.047L29.7782 41.313ZM29.8393 42.8105C29.7615 42.9971 29.6247 43.2271 29.4074 43.4444C29.1901 43.6617 28.9601 43.7985 28.7735 43.8763L25.6965 36.4917C24.2106 37.1108 23.0738 38.2476 22.4547 39.7335L29.8393 42.8105ZM28.6299 43.9329C30.4704 43.2481 32.1841 42.6054 33.7706 42.0051L30.9394 34.5229C29.3686 35.1172 27.6689 35.7546 25.8401 36.4351L28.6299 43.9329ZM33.7378 42.0174C35.3628 41.4187 36.6934 40.9251 37.7275 40.5373L34.9185 33.0467C33.9046 33.4269 32.5899 33.9146 30.9722 34.5106L33.7378 42.0174ZM37.7275 40.5373C37.9822 40.4418 38.2088 40.3568 38.3995 40.2853C38.6014 40.2096 38.3395 40.3078 38.5375 40.2336C38.571 40.221 38.634 40.1974 38.6635 40.1863C38.6654 40.1856 38.6766 40.1814 38.6784 40.1807C38.6957 40.1742 38.6759 40.1817 38.6931 40.1752C38.7266 40.1626 38.6887 40.1769 38.722 40.1644C38.7256 40.163 38.7467 40.1551 38.7501 40.1538C38.7519 40.1532 38.7622 40.1493 38.7639 40.1487C38.7776 40.1435 38.7639 40.1487 38.7775 40.1436C38.7786 40.1431 38.7797 40.1427 38.7809 40.1423C38.782 40.1419 38.7831 40.1415 38.7842 40.141C38.7865 40.1402 38.7887 40.1394 38.7909 40.1385C38.792 40.1381 38.7931 40.1377 38.7942 40.1373C38.7953 40.1369 38.7964 40.1365 38.7975 40.1361C38.7986 40.1356 38.7997 40.1352 38.8008 40.1348C38.8019 40.1344 38.803 40.134 38.8041 40.1336C38.8129 40.1303 38.8215 40.1271 38.83 40.1239C38.8408 40.1198 38.8697 40.109 38.8795 40.1053C39.1683 39.997 38.7747 40.1446 39.0475 40.0423C39.0815 40.0296 39.0835 40.0288 39.1135 40.0176C39.1147 40.0171 39.1197 40.0152 39.1209 40.0148C39.134 40.0099 39.1151 40.017 39.1281 40.0121C39.1311 40.011 39.1323 40.0105 39.1351 40.0094C39.1386 40.0081 39.1386 40.0082 39.142 40.0069C39.163 39.999 39.1475 40.0048 39.1675 39.9973C39.1995 39.9853 39.1815 39.9921 39.2095 39.9816C39.2575 39.9636 39.1955 39.9868 39.2395 39.9703C39.2495 39.9666 39.241 39.9698 39.25 39.9664C39.2515 39.9658 39.2529 39.9653 39.2541 39.9648C39.2543 39.9648 39.2544 39.9647 39.2546 39.9647C39.2547 39.9646 39.2549 39.9645 39.255 39.9645C39.2552 39.9644 39.2553 39.9644 39.2555 39.9643C39.2556 39.9643 39.2558 39.9642 39.2559 39.9642C39.2566 39.9639 39.2561 39.9641 39.2567 39.9639C39.2569 39.9638 39.2574 39.9636 39.2575 39.9636C39.2577 39.9635 39.258 39.9634 39.2582 39.9633C39.2583 39.9632 39.2584 39.9632 39.2586 39.9632C39.2587 39.9631 39.2588 39.9631 39.2589 39.963C39.2596 39.9628 39.2595 39.9628 39.2601 39.9626C39.2607 39.9624 39.2607 39.9624 39.2611 39.9622C39.2612 39.9622 39.2613 39.9621 39.2614 39.9621C39.2615 39.9621 39.2615 39.9621 39.2616 39.962C39.2617 39.962 39.2617 39.962 39.2618 39.962C39.2619 39.9619 39.2619 39.9619 39.262 39.9619C39.2621 39.9619 39.2621 39.9618 39.2622 39.9618C39.2622 39.9618 39.2623 39.9618 39.2623 39.9617C39.2627 39.9616 39.2623 39.9618 39.2626 39.9616C39.2631 39.9615 39.2625 39.9617 39.2629 39.9615C39.2629 39.9615 39.263 39.9615 39.263 39.9615C39.2631 39.9615 39.2631 39.9615 39.2631 39.9615C39.2631 39.9614 39.2632 39.9614 39.2632 39.9614C39.2632 39.9614 39.2633 39.9614 39.2633 39.9614C39.2633 39.9614 39.2633 39.9614 39.2633 39.9614C39.2634 39.9614 39.2634 39.9614 39.2634 39.9614C39.2634 39.9613 39.2634 39.9613 39.2634 39.9613C39.2635 39.9613 39.2635 39.9613 39.2635 39.9613C39.2635 39.9613 39.2635 39.9613 39.2635 39.9613C39.2635 39.9613 39.2635 39.9613 37.859 36.216C36.4545 32.4707 36.4545 32.4707 36.4545 32.4707C36.4545 32.4707 36.4545 32.4707 36.4545 32.4707C36.4545 32.4707 36.4545 32.4707 36.4545 32.4707C36.4544 32.4707 36.4544 32.4707 36.4544 32.4707C36.4542 32.4708 36.4546 32.4707 36.4543 32.4708C36.4538 32.4709 36.4546 32.4706 36.4541 32.4708C36.4536 32.471 36.4543 32.4708 36.4537 32.471C36.4517 32.4717 36.455 32.4705 36.453 32.4712C36.4526 32.4714 36.4531 32.4712 36.4526 32.4714C36.4525 32.4714 36.4522 32.4715 36.4522 32.4716C36.4514 32.4719 36.452 32.4716 36.4511 32.4719C36.4474 32.4734 36.4525 32.4714 36.4485 32.4729C36.4385 32.4767 36.452 32.4716 36.441 32.4757C36.436 32.4776 36.4365 32.4774 36.4305 32.4797C36.4285 32.4804 36.4264 32.4812 36.4241 32.4821C36.4131 32.4862 36.4283 32.4805 36.417 32.4847C36.3995 32.4913 36.419 32.484 36.4005 32.4909C36.3085 32.5254 36.4545 32.4707 36.3585 32.5067C36.3105 32.5247 36.3025 32.5277 36.2385 32.5517C36.2231 32.5574 36.2358 32.5527 36.2201 32.5586C36.2186 32.5592 36.2123 32.5615 36.2107 32.5621C36.2075 32.5633 36.2043 32.5645 36.201 32.5657C36.1982 32.5668 36.1941 32.5683 36.1912 32.5694C36.1796 32.5738 36.1928 32.5688 36.1811 32.5732C36.1394 32.5889 36.2025 32.5652 36.1605 32.5809C36.1586 32.5816 36.0764 32.6125 36.0705 32.6147C35.816 32.7101 35.909 32.6753 35.5905 32.7947C35.533 32.8162 35.63 32.7799 35.5724 32.8015C35.5709 32.802 35.5694 32.8026 35.5679 32.8032C35.5663 32.8037 35.5648 32.8043 35.5633 32.8049C35.5534 32.8086 35.5641 32.8046 35.5541 32.8083C35.5465 32.8112 35.5434 32.8124 35.5357 32.8152C35.4967 32.8299 35.5561 32.8076 35.517 32.8222C35.5061 32.8263 35.5186 32.8217 35.5076 32.8258C35.4697 32.84 35.536 32.8151 35.4982 32.8293C35.4966 32.8299 35.495 32.8305 35.4934 32.8311C35.4918 32.8317 35.4903 32.8323 35.4887 32.8329C35.4855 32.8341 35.4823 32.8353 35.4791 32.8364C35.4501 32.8473 35.4697 32.84 35.4405 32.8509C35.4369 32.8523 35.4344 32.8532 35.4307 32.8546C35.3989 32.8665 35.4528 32.8463 35.4209 32.8583C35.4044 32.8645 35.4177 32.8595 35.4011 32.8657C35.3771 32.8747 35.4152 32.8604 35.3912 32.8694C35.3686 32.8779 35.4037 32.8647 35.3812 32.8732C35.3795 32.8738 35.3778 32.8744 35.3761 32.8751C35.3745 32.8757 35.3728 32.8763 35.3711 32.877C35.3577 32.882 35.3745 32.8757 35.361 32.8807C35.3063 32.9013 35.3751 32.8755 35.3201 32.8961C35.2806 32.9109 35.339 32.889 35.2994 32.9038C35.247 32.9235 35.331 32.892 35.2785 32.9117C35.1735 32.9511 35.3414 32.8881 35.2361 32.9276C35.153 32.9588 35.2764 32.9125 35.193 32.9437C35.1912 32.9444 35.1894 32.9451 35.1876 32.9458C35.1857 32.9465 35.1839 32.9471 35.1821 32.9478C35.1803 32.9485 35.1785 32.9492 35.1766 32.9499C35.1748 32.9506 35.173 32.9512 35.1712 32.9519C35.1546 32.9581 35.1657 32.954 35.1491 32.9602C35.0643 32.992 35.1896 32.945 35.1045 32.9769C35.09 32.9824 35.0285 33.0054 35.013 33.0112C35.0033 33.0149 35.0111 33.012 35.0014 33.0156C34.9994 33.0163 34.9975 33.0171 34.9955 33.0178C34.9936 33.0185 34.9916 33.0193 34.9897 33.02C34.9096 33.05 35.0463 32.9988 34.9661 33.0288C34.8967 33.0549 35.0119 33.0117 34.9424 33.0377C34.9404 33.0385 34.9384 33.0392 34.9365 33.04C34.9345 33.0407 34.9325 33.0414 34.9305 33.0422C34.9285 33.0429 34.9265 33.0437 34.9245 33.0444C34.9225 33.0452 34.9205 33.0459 34.9185 33.0467L37.7275 40.5373ZM39.3446 39.9299C39.2041 39.9861 38.9818 40.0513 38.6932 40.0665C38.3974 40.082 38.0943 40.0415 37.8101 39.9467L40.3399 32.3573C38.9373 31.8897 37.5523 32.0306 36.3734 32.5021L39.3446 39.9299ZM38.1756 40.0496C37.9365 39.9944 37.6234 39.8699 37.3164 39.6275C37.01 39.3856 36.8193 39.1128 36.7133 38.9009L43.8687 35.3231C43.0826 33.7509 41.6992 32.6525 39.9744 32.2544L38.1756 40.0496ZM36.7944 39.0546C36.7083 38.8996 36.328 38.1183 36.6369 37.0371L44.3291 39.2349C44.8087 37.5564 44.3004 36.0924 43.7876 35.1694L36.7944 39.0546ZM36.5232 37.5703C36.5029 37.7128 36.4677 37.8966 36.4104 38.1259L44.1716 40.0661C44.2849 39.6127 44.3778 39.1566 44.4428 38.7017L36.5232 37.5703ZM36.7133 37.3071C36.4485 37.8366 36.2795 38.3734 36.1767 38.8875L44.0213 40.4565C44.0038 40.544 43.9628 40.6967 43.8687 40.8849L36.7133 37.3071ZM36.2184 38.7019C36.21 38.7357 36.1803 38.8429 36.1123 39.0471L43.7017 41.5769C43.8043 41.2691 43.9027 40.9496 43.9796 40.6421L36.2184 38.7019ZM36.2083 38.789C35.8553 39.6462 35.4989 40.6509 35.1373 41.7809L42.7567 44.2191C43.0778 43.2157 43.3613 42.4285 43.6057 41.835L36.2083 38.789ZM35.107 41.88C34.8185 42.8692 34.5086 43.8815 34.1773 44.9169L41.7967 47.3551C42.148 46.2572 42.4782 45.1788 42.787 44.12L35.107 41.88ZM34.22 44.7907C33.9924 45.4281 33.7978 46.009 33.6437 46.5226L41.3063 48.8214C41.4082 48.4816 41.555 48.0386 41.754 47.4813L34.22 44.7907ZM33.6437 46.5226C33.5023 46.9939 33.3781 47.4391 33.2744 47.8539L41.0356 49.7941C41.1026 49.5262 41.1917 49.2035 41.3063 48.8214L33.6437 46.5226ZM37.979 52.7382C39.3679 52.4458 40.955 51.7271 42.542 50.8895L38.808 43.8145C37.323 44.5982 36.5634 44.8609 36.331 44.9098L37.979 52.7382ZM42.5983 50.8592C44.0011 50.09 45.478 49.2166 47.0277 48.2425L42.7703 41.4695C41.3333 42.3727 39.9943 43.1633 38.7517 43.8447L42.5983 50.8592ZM47.0526 48.2268C48.6187 47.2262 50.2047 46.1833 51.8104 45.0984L47.3316 38.4696C45.78 39.518 44.2513 40.5231 42.7454 41.4852L47.0526 48.2268ZM51.691 45.176C52.0323 44.9627 52.3737 44.7493 52.715 44.536L48.475 37.752C48.1337 37.9653 47.7923 38.1787 47.451 38.392L51.691 45.176ZM52.5376 44.6406C53.1298 44.3116 53.6972 43.927 54.2222 43.477L49.0158 37.403C48.9434 37.465 48.8282 37.5497 48.6524 37.6474L52.5376 44.6406ZM53.7665 43.8146C53.608 43.9155 53.3565 44.0351 53.0244 44.0928C52.6872 44.1515 52.3735 44.1277 52.1209 44.0646L54.0611 36.3034C52.4216 35.8936 50.8105 36.2133 49.4715 37.0654L53.7665 43.8146ZM52.4828 44.1375C52.2577 44.1029 51.9561 44.0107 51.647 43.8098C51.3372 43.6084 51.1254 43.3663 50.9964 43.1635L57.7456 38.8685C56.8219 37.4169 55.3817 36.4893 53.6992 36.2305L52.4828 44.1375ZM51.0941 43.3098C50.9434 43.0946 50.7932 42.7867 50.7235 42.4035C50.6541 42.0218 50.6873 41.6904 50.7464 41.4538L58.5076 43.3941C58.9123 41.7753 58.6212 40.1125 57.6479 38.7221L51.0941 43.3098ZM50.6814 41.7664C50.7289 41.4815 50.8451 41.1582 51.0538 40.8533C51.2583 40.5544 51.4865 40.3678 51.6475 40.2654L55.9425 47.0146C57.2922 46.1557 58.286 44.8008 58.5726 43.0816L50.6814 41.7664ZM51.395 40.44C51.1174 40.6482 50.8156 40.8616 50.4882 41.0798L54.9258 47.7362C55.3664 47.4424 55.7899 47.1438 56.195 46.84L51.395 40.44ZM50.587 41.016C50.208 41.2529 49.8122 41.5091 49.4002 41.7838L53.8378 48.4402C54.1938 48.2029 54.5233 47.9898 54.827 47.8L50.587 41.016ZM49.4205 41.7703C47.8132 42.8278 46.2495 43.8421 44.7294 44.8132L49.0366 51.5548C50.5885 50.5633 52.1822 49.5295 53.8175 48.4537L49.4205 41.7703ZM44.7294 44.8132C43.2681 45.7468 41.9104 46.5443 40.6544 47.2115L44.4076 54.2765C45.8823 53.493 47.4259 52.5838 49.0366 51.5548L44.7294 44.8132ZM40.677 47.1996C38.0373 48.5804 36.5551 48.92 35.939 48.92V56.92C38.5655 56.92 41.478 55.8089 44.385 54.2884L40.677 47.1996ZM74.4445 48.376L75.7094 44.5813L75.4924 44.5089L75.2685 44.4618L74.4445 48.376ZM72.7165 46.904L68.9445 48.2353L68.984 48.347L69.03 48.4562L72.7165 46.904ZM72.9085 44.472L69.2971 42.7523L69.2631 42.8237L69.2319 42.8963L72.9085 44.472ZM74.5725 41.464L71.2443 39.2452L71.204 39.3057L71.1659 39.3676L74.5725 41.464ZM75.2765 40.312L71.8465 38.254L71.8122 38.3112L71.7799 38.3694L75.2765 40.312ZM75.9165 39.16L72.5883 36.9412L72.4502 37.1484L72.3388 37.3711L75.9165 39.16ZM76.1085 38.84L79.6862 40.6289L79.8133 40.3746L79.9032 40.1049L76.1085 38.84ZM76.2365 38.52L79.8142 40.3089L82.2363 35.4648L76.8941 34.5744L76.2365 38.52ZM71.7565 38.392L71.9614 42.3867L72.0085 42.3843L72.0557 42.3808L71.7565 38.392ZM66.1245 39.352L67.1158 43.2272L67.1331 43.2228L67.1502 43.2182L66.1245 39.352ZM60.1725 41.208L61.4836 44.987L61.5055 44.9794L61.5274 44.9715L60.1725 41.208ZM53.5165 43.832L54.8835 47.5912L55.0013 47.5483L55.1163 47.4982L53.5165 43.832ZM52.1085 43.832L50.7415 47.5912L52.1085 43.832ZM51.0845 42.872L54.726 41.2168L54.6658 41.0843L54.5961 40.9566L51.0845 42.872ZM51.0205 41.4L54.7128 42.9385L54.7341 42.8875L54.7539 42.8359L51.0205 41.4ZM52.0445 40.312L53.4115 44.0712L53.5452 44.0225L53.6751 43.9646L52.0445 40.312ZM58.8925 37.56L60.2238 41.332L60.2446 41.3246L60.2653 41.3171L58.8925 37.56ZM65.1645 35.64L66.0948 39.5303L66.1185 39.5247L66.1421 39.5187L65.1645 35.64ZM78.0285 35L76.9886 38.8625L77.0037 38.8665L77.0188 38.8705L78.0285 35ZM80.0765 36.792L83.7787 35.2775V35.2775L80.0765 36.792ZM77.8365 43.512L74.4379 41.4025L74.341 41.5587L74.2588 41.7231L77.8365 43.512ZM77.3885 44.28L73.8108 42.4911L70.0747 49.9634L78.2382 48.1887L77.3885 44.28ZM81.7405 43L83.0054 46.7947L81.7405 43ZM89.6765 40.184L88.3095 36.4248L88.2981 36.429L89.6765 40.184ZM91.0845 40.312L89.1691 43.8236L89.3528 43.9238L89.546 44.0043L91.0845 40.312ZM92.1085 41.4L88.3138 42.6649L88.3802 42.8641L88.467 43.0552L92.1085 41.4ZM92.1085 42.872L95.75 44.5272L95.7763 44.4692L95.8008 44.4105L92.1085 42.872ZM90.9565 43.896L92.2706 47.674L92.3319 47.6527L92.3924 47.6294L90.9565 43.896ZM85.5805 45.752L86.8753 49.5367L85.5805 45.752ZM81.2285 47.16L82.3779 50.9913L81.2285 47.16ZM77.3245 48.248L78.073 52.1774L78.1624 52.1603L78.251 52.1392L77.3245 48.248ZM75.2765 44.504C75.3622 44.504 75.5164 44.5169 75.7094 44.5813L73.1796 52.1707C73.8846 52.4057 74.5935 52.504 75.2765 52.504V44.504ZM75.2685 44.4618C75.453 44.5006 75.731 44.6073 75.9984 44.835C76.2579 45.0561 76.3705 45.2746 76.403 45.3518L69.03 48.4562C69.8432 50.3877 71.435 51.8301 73.6205 52.2902L75.2685 44.4618ZM76.4885 45.5727C76.5572 45.7675 76.5696 45.9469 76.5601 46.0668C76.5518 46.1724 76.5316 46.1723 76.5851 46.0477L69.2319 42.8963C68.5623 44.4589 68.272 46.3298 68.9445 48.2353L76.4885 45.5727ZM76.5199 46.1917C76.8696 45.4575 77.3497 44.5831 77.9791 43.5604L71.1659 39.3676C70.4299 40.5635 69.8007 41.6945 69.2971 42.7523L76.5199 46.1917ZM77.9007 43.6828C78.2136 43.2135 78.5048 42.7375 78.7731 42.2546L71.7799 38.3694C71.6215 38.6545 71.4435 38.9465 71.2443 39.2452L77.9007 43.6828ZM78.7065 42.37C79.0003 41.8802 79.2665 41.4043 79.4942 40.9489L72.3388 37.3711C72.2252 37.5983 72.0647 37.8904 71.8465 38.254L78.7065 42.37ZM79.2447 41.3788C79.3737 41.1853 79.5386 40.9241 79.6862 40.6289L72.5308 37.0511C72.5496 37.0136 72.5652 36.9847 72.5759 36.9654C72.5867 36.9459 72.5946 36.9326 72.5985 36.926C72.6057 36.914 72.6036 36.9182 72.5883 36.9412L79.2447 41.3788ZM79.9032 40.1049C79.9039 40.1028 79.8987 40.1189 79.8864 40.1496C79.8745 40.1792 79.8512 40.2348 79.8142 40.3089L72.6588 36.7311C72.5048 37.0391 72.3939 37.3347 72.3138 37.5751L79.9032 40.1049ZM76.8941 34.5744C75.2162 34.2948 73.3886 34.2584 71.4573 34.4032L72.0557 42.3808C73.5378 42.2696 74.6968 42.3186 75.5789 42.4656L76.8941 34.5744ZM71.5516 34.3972C69.5424 34.5003 67.3831 34.8797 65.0988 35.4858L67.1502 43.2182C69.0472 42.715 70.6425 42.4544 71.9614 42.3867L71.5516 34.3972ZM65.1332 35.4768C63.1545 35.983 61.0479 36.6416 58.8176 37.4445L61.5274 44.9715C63.5638 44.2384 65.4252 43.6597 67.1158 43.2272L65.1332 35.4768ZM58.8614 37.429C56.6594 38.1929 54.3438 39.1067 51.9167 40.1658L55.1163 47.4982C57.3825 46.5093 59.5043 45.6737 61.4836 44.987L58.8614 37.429ZM52.1495 40.0728C52.3247 40.0091 52.5518 39.96 52.8125 39.96C53.0732 39.96 53.3003 40.0091 53.4755 40.0728L50.7415 47.5912C52.0939 48.0829 53.5311 48.0829 54.8835 47.5912L52.1495 40.0728ZM53.4755 40.0728C53.7145 40.1597 53.9861 40.3114 54.2363 40.5459C54.4843 40.7784 54.6383 41.024 54.726 41.2168L47.443 44.5272C48.085 45.9395 49.2261 47.0401 50.7415 47.5912L53.4755 40.0728ZM54.5961 40.9566C54.7341 41.2096 54.8546 41.561 54.8727 41.9783C54.8907 42.3906 54.8025 42.7232 54.7128 42.9385L47.3282 39.8615C46.6688 41.4441 46.7116 43.2083 47.5729 44.7874L54.5961 40.9566ZM54.7539 42.8359C54.7095 42.9512 54.5959 43.1915 54.3493 43.4535C54.0901 43.7288 53.7629 43.9434 53.4115 44.0712L50.6775 36.5528C48.9124 37.1947 47.8293 38.5544 47.2871 39.9641L54.7539 42.8359ZM53.6751 43.9646C55.979 42.936 58.1615 42.0598 60.2238 41.332L57.5612 33.788C55.2715 34.5962 52.8886 35.5547 50.4139 36.6594L53.6751 43.9646ZM60.2653 41.3171C62.3628 40.5506 64.3048 39.9584 66.0948 39.5303L64.2342 31.7497C62.0989 32.2603 59.8595 32.948 57.5197 33.8029L60.2653 41.3171ZM66.1421 39.5187C71.07 38.2767 74.5938 38.2177 76.9886 38.8625L79.0684 31.1375C74.8072 29.9903 69.755 30.358 64.1869 31.7613L66.1421 39.5187ZM77.0188 38.8705C76.9803 38.8604 76.8212 38.8067 76.6425 38.6503C76.4637 38.4939 76.3894 38.3434 76.3743 38.3065L83.7787 35.2775C82.918 33.1735 81.2378 31.7033 79.0382 31.1295L77.0188 38.8705ZM76.3743 38.3065C76.3509 38.2493 76.3317 38.1823 76.3211 38.1114C76.3105 38.0412 76.3112 37.9864 76.3138 37.9546C76.3187 37.8935 76.3261 37.9652 76.2165 38.1927L83.4245 41.6633C84.3333 39.7757 84.6982 37.5253 83.7787 35.2775L76.3743 38.3065ZM76.2165 38.1927C75.7314 39.2003 75.1409 40.2699 74.4379 41.4025L81.2351 45.6214C82.0681 44.2794 82.8003 42.9597 83.4245 41.6633L76.2165 38.1927ZM74.2588 41.7231C74.2776 41.6856 74.2932 41.6567 74.3039 41.6374C74.3147 41.6179 74.3226 41.6045 74.3265 41.598C74.3337 41.586 74.3316 41.5902 74.3163 41.6132L80.9727 46.0508C81.1017 45.8573 81.2666 45.5961 81.4142 45.3009L74.2588 41.7231ZM74.3163 41.6132C74.1202 41.9073 73.9535 42.2058 73.8108 42.4911L80.9662 46.0689C80.9793 46.0427 80.9872 46.0285 80.9895 46.0246C80.9918 46.0205 80.9865 46.0301 80.9727 46.0508L74.3163 41.6132ZM78.2382 48.1887C79.4387 47.9277 81.0566 47.4443 83.0054 46.7947L80.4756 39.2053C78.5844 39.8357 77.301 40.2056 76.5388 40.3713L78.2382 48.1887ZM83.0054 46.7947C84.9817 46.136 87.6706 45.1814 91.0549 43.939L88.2981 36.429C84.9411 37.6613 82.3393 38.584 80.4756 39.2053L83.0054 46.7947ZM91.0435 43.9432C90.759 44.0466 90.4043 44.1067 90.0184 44.0716C89.6399 44.0372 89.3501 43.9223 89.1691 43.8236L92.9999 36.8004C91.603 36.0385 89.9409 35.8316 88.3095 36.4248L91.0435 43.9432ZM89.546 44.0043C89.3415 43.9191 89.0689 43.7587 88.8117 43.4855C88.5524 43.2099 88.3963 42.9125 88.3138 42.6649L95.9032 40.1351C95.3553 38.4914 94.1687 37.2638 92.623 36.6197L89.546 44.0043ZM88.467 43.0552C88.3497 42.797 88.2685 42.4745 88.2685 42.12C88.2685 41.7727 88.3461 41.5017 88.4162 41.3335L95.8008 44.4105C96.4051 42.9601 96.4606 41.3082 95.75 39.7448L88.467 43.0552ZM88.467 41.2168C88.5908 40.9446 88.776 40.6922 89.003 40.4904C89.2218 40.2959 89.4186 40.2019 89.5206 40.1626L92.3924 47.6294C93.7647 47.1016 95.0357 46.0986 95.75 44.5272L88.467 41.2168ZM89.6424 40.118C87.6849 40.7989 85.8995 41.4153 84.2858 41.9673L86.8753 49.5367C88.5042 48.9794 90.3028 48.3584 92.2706 47.674L89.6424 40.118ZM84.2858 41.9673C82.6999 42.5099 81.299 42.9627 80.0791 43.3287L82.3779 50.9913C83.718 50.5893 85.2184 50.1035 86.8753 49.5367L84.2858 41.9673ZM80.0791 43.3287C78.3917 43.8349 77.179 44.1708 76.398 44.3568L78.251 52.1392C79.262 51.8985 80.652 51.5091 82.3779 50.9913L80.0791 43.3287ZM76.576 44.3186C76.1866 44.3928 75.8792 44.4415 75.6444 44.4709C75.5283 44.4854 75.4388 44.4941 75.373 44.4989C75.3059 44.5039 75.2759 44.504 75.2765 44.504V52.504C76.133 52.504 77.1149 52.3598 78.073 52.1774L76.576 44.3186Z" fill="#313131" mask="url(#path-1-outside-1_61_52)"/>
</g>
<mask id="path-3-outside-2_61_52" maskUnits="userSpaceOnUse" x="0" y="32" width="94" height="22" fill="black">
<rect fill="white" y="32" width="94" height="22"/>
<path d="M17.592 49.144C17.08 49.144 16.6533 48.9947 16.312 48.696C15.6293 48.1413 15.4373 47.4373 15.736 46.584C15.736 46.5413 15.8853 46.0293 16.184 45.048C16.5253 44.0667 16.9093 42.9573 17.336 41.72C17.5493 40.9947 17.7413 40.376 17.912 39.864C18.0827 39.3093 18.232 38.8187 18.36 38.392C17.208 38.8187 15.8 39.352 14.136 39.992C12.472 40.5893 10.7227 41.2293 8.888 41.912C7.096 42.5947 5.34667 43.256 3.64 43.896C3.17067 44.0667 2.70133 44.0453 2.232 43.832C1.72 43.576 1.35733 43.192 1.144 42.68C0.973333 42.2107 1.016 41.7413 1.272 41.272C1.48533 40.76 1.848 40.3973 2.36 40.184C4.28 39.5013 6.264 38.7973 8.312 38.072C10.36 37.304 12.2587 36.6 14.008 35.96C15.7573 35.2773 17.1867 34.7227 18.296 34.296C19.4053 33.8693 19.96 33.656 19.96 33.656C20.1733 33.6133 20.3867 33.592 20.6 33.592C20.8133 33.5493 21.0053 33.5707 21.176 33.656C21.7733 33.7413 22.2 34.0827 22.456 34.68C22.6693 35.0213 22.7547 35.4693 22.712 36.024C22.712 36.536 22.6053 37.2827 22.392 38.264C22.264 38.8187 22.0933 39.4373 21.88 40.12C21.7093 40.76 21.4747 41.5067 21.176 42.36C21.1333 42.5307 21.0907 42.68 21.048 42.808C21.0053 42.936 20.9627 43.0853 20.92 43.256C22.6267 42.3173 24.7173 41.336 27.192 40.312C27.6613 40.0987 28.1307 40.0987 28.6 40.312C29.112 40.4827 29.4533 40.8027 29.624 41.272C29.88 41.7413 29.9013 42.232 29.688 42.744C29.4747 43.256 29.1333 43.6187 28.664 43.832C26.744 44.6853 25.016 45.496 23.48 46.264C21.9867 47.032 20.792 47.6507 19.896 48.12C19 48.5893 18.552 48.824 18.552 48.824C18.296 49.0373 17.976 49.144 17.592 49.144ZM35.939 52.92C35.7257 52.92 35.5123 52.8987 35.299 52.856C35.0857 52.856 34.851 52.8347 34.595 52.792C34.083 52.6213 33.6563 52.2587 33.315 51.704C33.1443 51.3627 33.059 50.8933 33.059 50.296C33.059 49.6987 33.251 48.7173 33.635 47.352C34.019 45.9867 34.6377 43.96 35.491 41.272C34.5523 41.6133 33.4643 42.0187 32.227 42.488C31.0323 42.9573 29.795 43.4267 28.515 43.896C28.0457 44.0667 27.5763 44.0453 27.107 43.832C26.595 43.576 26.2323 43.192 26.019 42.68C25.8483 42.2107 25.891 41.7413 26.147 41.272C26.3603 40.76 26.723 40.3973 27.235 40.184C29.0697 39.5013 30.7763 38.8613 32.355 38.264C33.9763 37.6667 35.299 37.176 36.323 36.792C37.347 36.408 37.859 36.216 37.859 36.216C38.2857 36.0453 38.691 36.024 39.075 36.152C39.6297 36.28 40.035 36.6 40.291 37.112C40.5043 37.496 40.5683 37.8373 40.483 38.136C40.4403 38.4347 40.3763 38.7547 40.291 39.096C40.2057 39.2667 40.1417 39.4587 40.099 39.672C40.0563 39.8427 39.9923 40.056 39.907 40.312C39.6083 41.0373 39.2883 41.9333 38.947 43C38.6483 44.024 38.3283 45.0693 37.987 46.136C37.7737 46.7333 37.603 47.2453 37.475 47.672C37.347 48.0987 37.2403 48.4827 37.155 48.824C37.9657 48.6533 39.139 48.1627 40.675 47.352C41.9977 46.6267 43.4057 45.7947 44.899 44.856C46.435 43.8747 47.9923 42.8507 49.571 41.784C49.9123 41.5707 50.2537 41.3573 50.595 41.144C50.979 40.9307 51.3203 40.696 51.619 40.44C52.0883 40.1413 52.579 40.056 53.091 40.184C53.6457 40.2693 54.0723 40.5467 54.371 41.016C54.6697 41.4427 54.755 41.912 54.627 42.424C54.5417 42.936 54.2643 43.3413 53.795 43.64C53.4537 43.896 53.091 44.152 52.707 44.408C52.3657 44.6213 52.003 44.856 51.619 45.112C49.9977 46.1787 48.419 47.2027 46.883 48.184C45.347 49.1653 43.8963 50.0187 42.531 50.744C39.7577 52.1947 37.5603 52.92 35.939 52.92ZM75.2765 48.504C74.9778 48.504 74.7005 48.4613 74.4445 48.376C73.6338 48.2053 73.0578 47.7147 72.7165 46.904C72.4605 46.1787 72.5245 45.368 72.9085 44.472C73.3352 43.576 73.8898 42.5733 74.5725 41.464C74.8285 41.08 75.0632 40.696 75.2765 40.312C75.5325 39.8853 75.7458 39.5013 75.9165 39.16C76.0018 39.032 76.0658 38.9253 76.1085 38.84C76.1512 38.712 76.1938 38.6053 76.2365 38.52C74.9565 38.3067 73.4632 38.264 71.7565 38.392C70.0925 38.4773 68.2152 38.7973 66.1245 39.352C64.2898 39.8213 62.3058 40.44 60.1725 41.208C58.0818 41.9333 55.8632 42.808 53.5165 43.832C53.0472 44.0027 52.5778 44.0027 52.1085 43.832C51.6392 43.6613 51.2978 43.3413 51.0845 42.872C50.8285 42.4027 50.8072 41.912 51.0205 41.4C51.2338 40.8453 51.5752 40.4827 52.0445 40.312C54.4338 39.2453 56.7165 38.328 58.8925 37.56C61.1112 36.7493 63.2018 36.1093 65.1645 35.64C70.4125 34.3173 74.7005 34.104 78.0285 35C79.0098 35.256 79.6925 35.8533 80.0765 36.792C80.4605 37.7307 80.3752 38.776 79.8205 39.928C79.2658 41.08 78.6045 42.2747 77.8365 43.512C77.7938 43.5973 77.7298 43.704 77.6445 43.832C77.5592 43.96 77.4738 44.1093 77.3885 44.28C78.3698 44.0667 79.8205 43.64 81.7405 43C83.6605 42.36 86.3058 41.4213 89.6765 40.184C90.1458 40.0133 90.6152 40.056 91.0845 40.312C91.5965 40.5253 91.9378 40.888 92.1085 41.4C92.3218 41.8693 92.3218 42.36 92.1085 42.872C91.8952 43.3413 91.5112 43.6827 90.9565 43.896C88.9938 44.5787 87.2018 45.1973 85.5805 45.752C83.9592 46.3067 82.5085 46.776 81.2285 47.16C79.5218 47.672 78.2205 48.0347 77.3245 48.248C76.4285 48.4187 75.7458 48.504 75.2765 48.504Z"/>
</mask>
<path d="M16.312 48.696L16.9705 47.9434L16.9568 47.9314L16.9426 47.9199L16.312 48.696ZM15.736 46.584L16.6799 46.9144L16.736 46.7539V46.584H15.736ZM16.184 45.048L15.2395 44.7195L15.233 44.738L15.2273 44.7568L16.184 45.048ZM17.336 41.72L18.2814 42.046L18.2889 42.0242L18.2954 42.0022L17.336 41.72ZM17.912 39.864L18.8607 40.1802L18.8644 40.1692L18.8678 40.1581L17.912 39.864ZM18.36 38.392L19.3178 38.6793L19.8944 36.7573L18.0127 37.4543L18.36 38.392ZM14.136 39.992L14.4739 40.9332L14.4845 40.9294L14.495 40.9253L14.136 39.992ZM8.888 41.912L8.53926 40.9748L8.53201 40.9775L8.888 41.912ZM3.64 43.896L3.98176 44.8358L3.99112 44.8323L3.64 43.896ZM2.232 43.832L1.78479 44.7264L1.80134 44.7347L1.8182 44.7424L2.232 43.832ZM1.144 42.68L0.204206 43.0217L0.212071 43.0434L0.220923 43.0646L1.144 42.68ZM1.272 41.272L2.1499 41.7509L2.17495 41.7049L2.19508 41.6566L1.272 41.272ZM2.36 40.184L2.02499 39.2418L1.99993 39.2507L1.97538 39.2609L2.36 40.184ZM8.312 38.072L8.64585 39.0146L8.65451 39.0116L8.66312 39.0083L8.312 38.072ZM14.008 35.96L14.3516 36.8991L14.3616 36.8955L14.3715 36.8916L14.008 35.96ZM18.296 34.296L18.655 35.2293L18.296 34.296ZM19.96 33.656L19.7639 32.6754L19.6804 32.6921L19.601 32.7227L19.96 33.656ZM20.6 33.592V34.592H20.699L20.7961 34.5726L20.6 33.592ZM21.176 33.656L20.7288 34.5504L20.8739 34.623L21.0346 34.6459L21.176 33.656ZM22.456 34.68L21.5369 35.0739L21.5672 35.1447L21.608 35.21L22.456 34.68ZM22.712 36.024L21.7149 35.9473L21.712 35.9856V36.024H22.712ZM22.392 38.264L23.3665 38.4889L23.3692 38.4764L22.392 38.264ZM21.88 40.12L20.9255 39.8217L20.9192 39.8419L20.9138 39.8623L21.88 40.12ZM21.176 42.36L20.2321 42.0296L20.217 42.073L20.2059 42.1175L21.176 42.36ZM21.048 42.808L20.0993 42.4918L20.0993 42.4918L21.048 42.808ZM20.92 43.256L19.9499 43.0135L19.3941 45.2365L21.4019 44.1322L20.92 43.256ZM27.192 40.312L27.5744 41.236L27.5902 41.2295L27.6058 41.2224L27.192 40.312ZM28.6 40.312L28.1862 41.2224L28.234 41.2441L28.2838 41.2607L28.6 40.312ZM29.624 41.272L28.6842 41.6137L28.71 41.6846L28.7461 41.7509L29.624 41.272ZM29.688 42.744L28.7649 42.3594L29.688 42.744ZM28.664 43.832L29.0702 44.7458L29.0778 44.7424L28.664 43.832ZM23.48 46.264L23.0328 45.3695L23.0227 45.3747L23.48 46.264ZM19.896 48.12L19.432 47.2342L19.896 48.12ZM18.552 48.824L18.088 47.9382L17.9936 47.9876L17.9118 48.0558L18.552 48.824ZM17.592 48.144C17.2889 48.144 17.1059 48.0619 16.9705 47.9434L15.6535 49.4486C16.2008 49.9274 16.8711 50.144 17.592 50.144V48.144ZM16.9426 47.9199C16.7295 47.7467 16.6512 47.6006 16.6208 47.4889C16.5896 47.3746 16.5813 47.1959 16.6799 46.9144L14.7921 46.2536C14.592 46.8254 14.5304 47.4254 14.6912 48.0151C14.8528 48.6074 15.2118 49.0906 15.6814 49.4721L16.9426 47.9199ZM16.736 46.584C16.736 46.6451 16.7301 46.6919 16.7281 46.7072C16.7254 46.7281 16.7226 46.7439 16.7212 46.7517C16.7184 46.767 16.7163 46.7758 16.7168 46.7732C16.7177 46.7693 16.7214 46.7545 16.7296 46.724C16.7456 46.6647 16.7713 46.5739 16.808 46.448C16.881 46.1977 16.9916 45.8288 17.1407 45.3392L15.2273 44.7568C15.0777 45.2485 14.9643 45.6263 14.888 45.888C14.8501 46.0181 14.8198 46.1246 14.7984 46.204C14.7879 46.2428 14.7776 46.2827 14.7692 46.3188C14.7651 46.3362 14.7595 46.3613 14.7543 46.3893C14.7532 46.3953 14.736 46.4804 14.736 46.584H16.736ZM17.1285 45.3765C17.4702 44.3942 17.8545 43.284 18.2814 42.046L16.3906 41.394C15.9642 42.6307 15.5805 43.7392 15.2395 44.7195L17.1285 45.3765ZM18.2954 42.0022C18.5066 41.2841 18.6949 40.6775 18.8607 40.1802L16.9633 39.5478C16.7877 40.0745 16.5921 40.7052 16.3766 41.4378L18.2954 42.0022ZM18.8678 40.1581C19.0389 39.6018 19.189 39.1088 19.3178 38.6793L17.4022 38.1047C17.275 38.5285 17.1264 39.0169 16.9562 39.5699L18.8678 40.1581ZM18.0127 37.4543C16.8555 37.8828 15.4433 38.4178 13.777 39.0587L14.495 40.9253C16.1567 40.2862 17.5605 39.7545 18.7073 39.3297L18.0127 37.4543ZM13.7981 39.0508C12.1301 39.6496 10.3772 40.2909 8.53927 40.9748L9.23673 42.8492C11.0682 42.1678 12.8139 41.5291 14.4739 40.9332L13.7981 39.0508ZM8.53201 40.9775C6.74154 41.6596 4.99384 42.3203 3.28888 42.9597L3.99112 44.8323C5.6995 44.1917 7.45046 43.5297 9.244 42.8465L8.53201 40.9775ZM3.29826 42.9562C3.08364 43.0342 2.88543 43.0306 2.6458 42.9216L1.8182 44.7424C2.51724 45.0601 3.25769 45.0991 3.98174 44.8358L3.29826 42.9562ZM2.67921 42.9376C2.37435 42.7851 2.18492 42.5782 2.06708 42.2954L0.220923 43.0646C0.529746 43.8058 1.06565 44.3669 1.78479 44.7264L2.67921 42.9376ZM2.08379 42.3383C2.01877 42.1594 2.02038 41.9883 2.1499 41.7509L0.394104 40.7931C0.0116158 41.4944 -0.0721011 42.2619 0.204206 43.0217L2.08379 42.3383ZM2.19508 41.6566C2.30696 41.3881 2.47609 41.219 2.74462 41.1071L1.97538 39.2609C1.21991 39.5757 0.663705 40.1319 0.348923 40.8874L2.19508 41.6566ZM2.69501 41.1262C4.6146 40.4437 6.59821 39.7398 8.64585 39.0146L7.97815 37.1294C5.92979 37.8548 3.9454 38.559 2.02499 39.2418L2.69501 41.1262ZM8.66312 39.0083C10.709 38.2411 12.6052 37.5381 14.3516 36.8991L13.6644 35.0209C11.9122 35.6619 10.011 36.3669 7.96088 37.1357L8.66312 39.0083ZM14.3715 36.8916C16.1201 36.2092 17.5478 35.6552 18.655 35.2293L17.937 33.3627C16.8256 33.7901 15.3946 34.3455 13.6445 35.0284L14.3715 36.8916ZM18.655 35.2293C18.8779 35.1436 19.2294 35.0084 19.383 34.9493C19.437 34.9286 19.3678 34.9552 19.4216 34.9345C19.4364 34.9288 19.4448 34.9256 19.4594 34.92C19.4707 34.9156 19.5222 34.8958 19.5325 34.8918C19.5549 34.8832 19.6509 34.8463 19.669 34.8393C19.6914 34.8307 19.8978 34.7513 19.903 34.7493C19.9251 34.7408 19.9827 34.7187 20.0005 34.7118C20.01 34.7082 20.036 34.6982 20.0444 34.695C20.0468 34.694 20.0629 34.6878 20.0651 34.687C20.0662 34.6866 20.074 34.6835 20.0751 34.6831C20.0757 34.6829 20.0795 34.6814 20.0801 34.6812C20.0809 34.6809 20.0817 34.6806 20.0825 34.6803C20.0834 34.68 20.0842 34.6797 20.085 34.6793C20.1254 34.6638 20.1919 34.6382 20.215 34.6293C20.2419 34.619 20.2834 34.603 20.293 34.5993C20.2997 34.5968 20.3101 34.5928 20.3125 34.5918C20.3138 34.5914 20.3172 34.59 20.3174 34.59C20.3174 34.59 20.3177 34.5898 20.3177 34.5898C20.3178 34.5898 20.318 34.5897 20.3181 34.5897C20.3182 34.5897 20.3185 34.5895 20.3186 34.5895C20.3187 34.5895 20.3188 34.5894 20.3189 34.5894C20.3189 34.5894 20.3189 34.5894 20.319 34.5894C20.319 34.5894 20.319 34.5893 20.319 34.5893C20.319 34.5893 20.319 34.5893 19.96 33.656C19.601 32.7227 19.601 32.7227 19.601 32.7227C19.601 32.7227 19.601 32.7227 19.601 32.7227C19.601 32.7227 19.601 32.7227 19.601 32.7227C19.601 32.7227 19.6009 32.7227 19.6009 32.7227C19.6008 32.7227 19.6009 32.7227 19.6008 32.7227C19.6008 32.7228 19.6007 32.7228 19.6007 32.7228C19.6007 32.7228 19.6006 32.7228 19.6006 32.7228C19.6006 32.7228 19.6005 32.7228 19.6005 32.7229C19.6005 32.7229 19.6004 32.7229 19.6004 32.7229C19.6002 32.723 19.6003 32.7229 19.6001 32.723C19.5992 32.7234 19.6004 32.7229 19.5994 32.7233C19.5987 32.7236 19.5984 32.7237 19.5974 32.7241C19.5965 32.7244 19.5977 32.7239 19.5967 32.7243C19.5966 32.7243 19.5965 32.7244 19.5964 32.7244C19.5963 32.7245 19.5962 32.7245 19.596 32.7246C19.5959 32.7246 19.5958 32.7247 19.5957 32.7247C19.5956 32.7248 19.5954 32.7248 19.5953 32.7248C19.5943 32.7252 19.5955 32.7248 19.5945 32.7252C19.5916 32.7263 19.5904 32.7267 19.5864 32.7283C19.5836 32.7293 19.5789 32.7312 19.575 32.7327C19.5635 32.7371 19.5584 32.739 19.5425 32.7452C19.5006 32.7613 19.5432 32.7449 19.497 32.7627C19.4932 32.7641 19.4943 32.7637 19.4904 32.7652C19.4899 32.7654 19.4893 32.7656 19.4887 32.7658C19.4882 32.7661 19.4876 32.7663 19.487 32.7665C19.4865 32.7667 19.4859 32.7669 19.4853 32.7671C19.4848 32.7674 19.4842 32.7676 19.4836 32.7678C19.4765 32.7706 19.4768 32.7704 19.4694 32.7733C19.4512 32.7803 19.4578 32.7777 19.4385 32.7852C19.4 32.8 19.4099 32.7962 19.367 32.8127C19.277 32.8473 19.3769 32.8089 19.2825 32.8452C19.2724 32.849 19.2466 32.859 19.2354 32.8633C19.2058 32.8747 19.2405 32.8613 19.2106 32.8728C19.2087 32.8735 19.1999 32.8769 19.1979 32.8777C19.1903 32.8806 19.1927 32.8797 19.185 32.8827C19.131 32.9034 19.1328 32.9027 19.0745 32.9252C19.0619 32.93 19.0281 32.943 19.0144 32.9483C18.9915 32.9571 19.0063 32.9514 18.9831 32.9603C18.9521 32.9722 18.9823 32.9606 18.951 32.9727C18.8739 33.0023 18.7594 33.0463 18.665 33.0827C18.5205 33.1383 18.4889 33.1504 18.327 33.2127C18.3257 33.2132 18.3055 33.2209 18.3042 33.2214C18.2677 33.2355 18.3176 33.2163 18.2811 33.2303C18.2395 33.2463 18.2763 33.2322 18.2344 33.2483C18.2045 33.2598 18.2407 33.2458 18.2107 33.2574C18.1895 33.2655 18.22 33.2538 18.1988 33.262C18.1968 33.2627 18.1948 33.2635 18.1929 33.2643C18.1909 33.265 18.1889 33.2658 18.1869 33.2666C18.18 33.2692 18.1817 33.2685 18.1749 33.2712C18.1495 33.2809 18.1881 33.2661 18.1628 33.2758C18.1474 33.2817 18.1539 33.2792 18.1385 33.2852C18.1292 33.2887 18.1234 33.291 18.114 33.2946C18.112 33.2954 18.1099 33.2961 18.1079 33.2969C18.1058 33.2977 18.1038 33.2985 18.1017 33.2993C18.0997 33.3001 18.0976 33.3009 18.0956 33.3017C18.0935 33.3025 18.0914 33.3033 18.0894 33.3041C18.0563 33.3168 18.0976 33.3009 18.0645 33.3136C18.039 33.3234 18.065 33.3134 18.0394 33.3233C18.0138 33.3331 18.0145 33.3329 17.9886 33.3428C17.96 33.3538 17.9659 33.3516 17.937 33.3627L18.655 35.2293ZM20.1561 34.6366C20.3062 34.6066 20.4538 34.592 20.6 34.592V32.592C20.3195 32.592 20.0405 32.6201 19.7639 32.6754L20.1561 34.6366ZM20.7961 34.5726C20.8144 34.5689 20.8118 34.5719 20.7936 34.5699C20.7738 34.5677 20.7503 34.5612 20.7288 34.5504L21.6232 32.7616C21.2262 32.5631 20.8032 32.5316 20.4039 32.6114L20.7961 34.5726ZM21.0346 34.6459C21.2555 34.6775 21.4055 34.7675 21.5369 35.0739L23.3751 34.2861C22.9945 33.3978 22.2912 32.8052 21.3174 32.666L21.0346 34.6459ZM21.608 35.21C21.6721 35.3125 21.7474 35.526 21.7149 35.9473L23.7091 36.1007C23.762 35.4127 23.6666 34.7301 23.304 34.15L21.608 35.21ZM21.712 36.024C21.712 36.4254 21.6245 37.0869 21.4148 38.0516L23.3692 38.4764C23.5861 37.4784 23.712 36.6466 23.712 36.024H21.712ZM21.4176 38.0391C21.2965 38.5638 21.1331 39.1574 20.9255 39.8217L22.8345 40.4183C23.0536 39.7172 23.2315 39.0735 23.3664 38.4889L21.4176 38.0391ZM20.9138 39.8623C20.7515 40.4708 20.5252 41.1923 20.2321 42.0296L22.1199 42.6903C22.4241 41.821 22.6672 41.0492 22.8462 40.3777L20.9138 39.8623ZM20.2059 42.1175C20.1677 42.2703 20.1319 42.394 20.0993 42.4918L21.9967 43.1242C22.0494 42.966 22.099 42.791 22.1461 42.6025L20.2059 42.1175ZM20.0993 42.4918C20.0466 42.65 19.997 42.825 19.9499 43.0135L21.8901 43.4985C21.9283 43.3457 21.9641 43.222 21.9967 43.1242L20.0993 42.4918ZM21.4019 44.1322C23.0669 43.2165 25.1221 42.2507 27.5744 41.236L26.8097 39.388C24.3126 40.4213 22.1864 41.4182 20.4381 42.3798L21.4019 44.1322ZM27.6058 41.2224C27.8122 41.1285 27.9798 41.1285 28.1862 41.2224L29.0138 39.4016C28.2815 39.0688 27.5105 39.0688 26.7782 39.4016L27.6058 41.2224ZM28.2838 41.2607C28.533 41.3438 28.6272 41.4569 28.6842 41.6137L30.5638 40.9303C30.2795 40.1485 29.691 39.6216 28.9162 39.3633L28.2838 41.2607ZM28.7461 41.7509C28.8508 41.9427 28.8667 42.115 28.7649 42.3594L30.6111 43.1286C30.9359 42.349 30.9092 41.5399 30.5019 40.7931L28.7461 41.7509ZM28.7649 42.3594C28.6407 42.6574 28.471 42.8213 28.2502 42.9216L29.0778 44.7424C29.7956 44.4161 30.3086 43.8546 30.6111 43.1286L28.7649 42.3594ZM28.2579 42.9182C26.3269 43.7764 24.5849 44.5935 23.0328 45.3696L23.9272 47.1584C25.4471 46.3985 27.1611 45.5943 29.0701 44.7458L28.2579 42.9182ZM23.0227 45.3747C21.5283 46.1432 20.3312 46.7632 19.432 47.2342L20.36 49.0058C21.2528 48.5382 22.445 47.9208 23.9373 47.1533L23.0227 45.3747ZM19.432 47.2342C19.2549 47.3269 19.2801 47.3137 19.117 47.3992C19.0822 47.4174 18.8648 47.5313 18.844 47.5422C18.6301 47.6542 18.5819 47.6794 18.424 47.7622C18.3697 47.7906 18.4367 47.7555 18.3833 47.7835C18.3349 47.8088 18.3928 47.7785 18.3452 47.8034C18.3192 47.8171 18.353 47.7994 18.3272 47.8129C18.285 47.835 18.3518 47.8 18.3098 47.822C18.2292 47.8642 18.3567 47.7974 18.277 47.8392C18.2708 47.8424 18.2521 47.8522 18.2468 47.855C18.2255 47.8661 18.2538 47.8513 18.2327 47.8624C18.2077 47.8755 18.244 47.8564 18.2192 47.8694C18.1725 47.8939 18.2402 47.8584 18.1943 47.8825C18.1612 47.8998 18.2042 47.8773 18.172 47.8942C18.1515 47.9049 18.1821 47.8889 18.1618 47.8995C18.1339 47.9141 18.18 47.89 18.1523 47.9045C18.109 47.9272 18.1777 47.8912 18.1352 47.9134C18.0977 47.9331 18.143 47.9093 18.109 47.9272C18.0868 47.9388 18.1211 47.9208 18.0998 47.932C18.0911 47.9366 18.1011 47.9313 18.0932 47.9354C18.0924 47.9359 18.0916 47.9363 18.0909 47.9366C18.0882 47.9381 18.0919 47.9361 18.0893 47.9375C18.0778 47.9435 18.0996 47.9321 18.0883 47.938C18.0881 47.9381 18.0883 47.938 18.0881 47.9381C18.0881 47.9381 18.088 47.9381 18.088 47.9381C18.088 47.9381 18.088 47.9382 18.088 47.9382C18.088 47.9382 18.088 47.9382 18.088 47.9382C18.088 47.9382 18.088 47.9382 18.552 48.824C19.016 49.7098 19.016 49.7098 19.016 49.7098C19.016 49.7098 19.016 49.7098 19.016 49.7098C19.0161 49.7098 19.016 49.7098 19.0161 49.7098C19.0161 49.7098 19.0161 49.7098 19.0161 49.7098C19.0162 49.7098 19.0162 49.7097 19.0162 49.7097C19.0164 49.7096 19.0161 49.7098 19.0163 49.7097C19.0306 49.7022 19.0029 49.7167 19.0173 49.7091C19.0222 49.7066 19.0139 49.7109 19.019 49.7083C19.0203 49.7076 19.0198 49.7079 19.0213 49.7071C19.0335 49.7007 19.0147 49.7105 19.0278 49.7036C19.0309 49.702 19.033 49.7009 19.037 49.6988C19.0788 49.677 19.018 49.7088 19.0633 49.6851C19.1059 49.6627 19.0368 49.6989 19.0803 49.6761C19.1043 49.6636 19.0656 49.6839 19.0898 49.6712C19.0998 49.6659 19.0898 49.6712 19.1 49.6658C19.1525 49.6384 19.1385 49.6456 19.205 49.6108C19.2219 49.602 19.2039 49.6114 19.2211 49.6024C19.2519 49.5863 19.1985 49.6142 19.2294 49.5981C19.2541 49.5851 19.2131 49.6066 19.2378 49.5936C19.2494 49.5876 19.2434 49.5907 19.2552 49.5845C19.2827 49.5701 19.2455 49.5896 19.2733 49.5751C19.2933 49.5646 19.2624 49.5808 19.2825 49.5702C19.2907 49.566 19.2838 49.5696 19.292 49.5653C19.3181 49.5516 19.285 49.569 19.3113 49.5551C19.3451 49.5375 19.2973 49.5625 19.3313 49.5447C19.3362 49.5421 19.3366 49.5419 19.3416 49.5393C19.3518 49.534 19.3418 49.5392 19.352 49.5338C19.4968 49.458 19.5712 49.419 19.772 49.3138C19.7788 49.3103 19.7968 49.3008 19.8038 49.2972C19.835 49.2808 19.7887 49.3051 19.82 49.2887C19.8319 49.2825 19.8244 49.2864 19.8363 49.2801C19.9004 49.2466 19.8052 49.2964 19.8695 49.2628C19.8788 49.2579 19.8685 49.2633 19.8778 49.2584C19.8792 49.2577 19.8807 49.2569 19.8821 49.2562C19.8835 49.2555 19.8849 49.2547 19.8863 49.254C19.8969 49.2484 19.8841 49.2551 19.8947 49.2495C19.8962 49.2488 19.8976 49.2481 19.899 49.2473C19.9004 49.2466 19.9018 49.2458 19.9033 49.2451C19.9073 49.2429 19.9679 49.2112 19.9728 49.2086C20.0087 49.1899 19.9547 49.2181 19.9906 49.1993C20.0017 49.1935 19.9885 49.2004 19.9996 49.1946C20.0144 49.1869 19.9938 49.1977 20.0086 49.1899C20.0101 49.1891 20.0116 49.1883 20.0131 49.1875C20.0146 49.1868 20.0161 49.186 20.0176 49.1852C20.0205 49.1837 20.0238 49.1819 20.0267 49.1804C20.0482 49.1691 20.0234 49.1821 20.045 49.1708C20.08 49.1525 20.1587 49.1113 20.1973 49.0911C20.232 49.0729 20.1823 49.0989 20.217 49.0807C20.2187 49.0799 20.2203 49.079 20.222 49.0781C20.2237 49.0773 20.2253 49.0764 20.227 49.0755C20.2536 49.0615 20.2103 49.0843 20.237 49.0703C20.2537 49.0615 20.2403 49.0685 20.2571 49.0598C20.2756 49.05 20.2587 49.0589 20.2773 49.0491C20.2829 49.0462 20.2819 49.0467 20.2875 49.0438C20.3157 49.0291 20.2696 49.0532 20.2977 49.0384C20.3234 49.025 20.2926 49.0411 20.3183 49.0277C20.3845 48.993 20.2936 49.0406 20.36 49.0058L19.432 47.2342ZM17.9118 48.0558C17.8624 48.0969 17.7797 48.144 17.592 48.144V50.144C18.1723 50.144 18.7296 49.9777 19.1922 49.5922L17.9118 48.0558ZM35.299 52.856L35.4951 51.8754L35.398 51.856H35.299V52.856ZM34.595 52.792L34.2788 53.7407L34.3532 53.7655L34.4306 53.7784L34.595 52.792ZM33.315 51.704L32.4206 52.1512L32.4403 52.1906L32.4633 52.2281L33.315 51.704ZM33.635 47.352L32.6723 47.0813L33.635 47.352ZM35.491 41.272L36.4441 41.5746L37.059 39.6378L35.1493 40.3322L35.491 41.272ZM32.227 42.488L31.8723 41.5529L31.8613 41.5572L32.227 42.488ZM28.515 43.896L28.8567 44.8358L28.8593 44.8349L28.515 43.896ZM27.107 43.832L26.6598 44.7264L26.6763 44.7347L26.6932 44.7424L27.107 43.832ZM26.019 42.68L25.0792 43.0217L25.0871 43.0434L25.0959 43.0646L26.019 42.68ZM26.147 41.272L27.0249 41.7509L27.05 41.7049L27.0701 41.6566L26.147 41.272ZM27.235 40.184L26.8863 39.2468L26.8682 39.2535L26.8504 39.2609L27.235 40.184ZM32.355 38.264L32.0093 37.3256L32.0011 37.3287L32.355 38.264ZM36.323 36.792L35.9719 35.8557L36.323 36.792ZM37.859 36.216L38.2101 37.1523L38.2203 37.1485L38.2304 37.1445L37.859 36.216ZM39.075 36.152L38.7588 37.1007L38.8038 37.1157L38.8501 37.1264L39.075 36.152ZM40.291 37.112L39.3966 37.5592L39.4063 37.5786L39.4168 37.5976L40.291 37.112ZM40.483 38.136L39.5215 37.8613L39.5027 37.927L39.493 37.9946L40.483 38.136ZM40.291 39.096L41.1854 39.5432L41.2345 39.445L41.2611 39.3385L40.291 39.096ZM40.099 39.672L41.0691 39.9145L41.0749 39.8914L41.0796 39.8681L40.099 39.672ZM39.907 40.312L40.8317 40.6927L40.8448 40.6609L40.8557 40.6282L39.907 40.312ZM38.947 43L37.9946 42.6952L37.9906 42.7076L37.987 42.72L38.947 43ZM37.987 46.136L38.9287 46.4723L38.9343 46.4566L38.9394 46.4408L37.987 46.136ZM37.475 47.672L38.4328 47.9593L37.475 47.672ZM37.155 48.824L36.1849 48.5815L35.7973 50.1318L37.361 49.8026L37.155 48.824ZM40.675 47.352L41.1418 48.2364L41.1488 48.2327L41.1558 48.2288L40.675 47.352ZM44.899 44.856L45.4312 45.7027L45.4374 45.6987L44.899 44.856ZM49.571 41.784L49.041 40.936L49.0259 40.9454L49.0111 40.9554L49.571 41.784ZM50.595 41.144L50.1094 40.2698L50.0868 40.2823L50.065 40.296L50.595 41.144ZM51.619 40.44L51.0821 39.5963L51.0222 39.6345L50.9682 39.6807L51.619 40.44ZM53.091 40.184L52.8485 41.1541L52.8933 41.1653L52.9389 41.1724L53.091 40.184ZM54.371 41.016L53.5273 41.5529L53.5392 41.5714L53.5518 41.5895L54.371 41.016ZM54.627 42.424L53.6569 42.1815L53.6472 42.2202L53.6406 42.2596L54.627 42.424ZM53.795 43.64L53.2581 42.7963L53.2257 42.817L53.195 42.84L53.795 43.64ZM52.707 44.408L53.237 45.256L53.2495 45.2482L53.2617 45.2401L52.707 44.408ZM51.619 45.112L52.1686 45.9474L52.1737 45.944L51.619 45.112ZM46.883 48.184L47.4214 49.0267L46.883 48.184ZM42.531 50.744L42.9945 51.6301L43.0002 51.6271L42.531 50.744ZM35.939 51.92C35.7928 51.92 35.6452 51.9054 35.4951 51.8754L35.1029 53.8366C35.3795 53.8919 35.6585 53.92 35.939 53.92V51.92ZM35.299 51.856C35.151 51.856 34.9723 51.8411 34.7594 51.8056L34.4306 53.7784C34.7297 53.8283 35.0203 53.856 35.299 53.856V51.856ZM34.9112 51.8433C34.6657 51.7615 34.4114 51.5776 34.1667 51.1799L32.4633 52.2281C32.9013 52.9397 33.5003 53.4812 34.2788 53.7407L34.9112 51.8433ZM34.2094 51.2568C34.1365 51.111 34.059 50.8171 34.059 50.296H32.059C32.059 50.9696 32.1522 51.6144 32.4206 52.1512L34.2094 51.2568ZM34.059 50.296C34.059 49.8503 34.2138 48.9874 34.5977 47.6227L32.6723 47.0813C32.2882 48.4472 32.059 49.547 32.059 50.296H34.059ZM34.5977 47.6227C34.977 46.274 35.5916 44.2602 36.4441 41.5746L34.5379 40.9694C33.6838 43.6598 33.061 45.6994 32.6723 47.0813L34.5977 47.6227ZM35.1493 40.3322C34.2052 40.6755 33.1127 41.0825 31.8723 41.553L32.5817 43.423C33.816 42.9548 34.8995 42.5511 35.8327 42.2118L35.1493 40.3322ZM31.8613 41.5572C30.6742 42.0236 29.444 42.4903 28.1707 42.9571L28.8593 44.8349C30.146 44.3631 31.3905 43.891 32.5927 43.4188L31.8613 41.5572ZM28.1733 42.9562C27.9586 43.0342 27.7604 43.0306 27.5208 42.9216L26.6932 44.7424C27.3922 45.0601 28.1327 45.0991 28.8567 44.8358L28.1733 42.9562ZM27.5542 42.9376C27.2494 42.7851 27.0599 42.5782 26.9421 42.2954L25.0959 43.0646C25.4047 43.8058 25.9406 44.3669 26.6598 44.7264L27.5542 42.9376ZM26.9588 42.3383C26.8938 42.1594 26.8954 41.9883 27.0249 41.7509L25.2691 40.7931C24.8866 41.4944 24.8029 42.2619 25.0792 43.0217L26.9588 42.3383ZM27.0701 41.6566C27.182 41.3881 27.3511 41.219 27.6196 41.1071L26.8504 39.2609C26.0949 39.5757 25.5387 40.1319 25.2239 40.8874L27.0701 41.6566ZM27.5837 41.1212C29.4199 40.438 31.1283 39.7974 32.7089 39.1993L32.0011 37.3287C30.4244 37.9253 28.7195 38.5647 26.8863 39.2468L27.5837 41.1212ZM32.7007 39.2023C34.3229 38.6047 35.6476 38.1133 36.6741 37.7283L35.9719 35.8557C34.9504 36.2387 33.6297 36.7287 32.0093 37.3257L32.7007 39.2023ZM36.6741 37.7283C36.7382 37.7043 36.8 37.6811 36.8601 37.6586C36.948 37.6256 36.8617 37.658 36.9486 37.6254C36.9669 37.6185 37.0168 37.5998 37.0341 37.5933C37.0429 37.59 37.0672 37.5809 37.0757 37.5777C37.0895 37.5726 37.1031 37.5675 37.1166 37.5624C37.1566 37.5474 37.1571 37.5472 37.1961 37.5326C37.2156 37.5253 37.2155 37.5253 37.2347 37.5181C37.235 37.518 37.2726 37.5039 37.2726 37.5039C37.3101 37.4898 37.3096 37.49 37.3461 37.4763C37.5381 37.4043 37.6981 37.3443 37.8261 37.2963C37.8544 37.2857 37.8918 37.2717 37.9161 37.2626C37.9284 37.258 37.9453 37.2516 37.9566 37.2474C37.9761 37.2401 37.9756 37.2403 37.9941 37.2333C38.0001 37.2311 37.9972 37.2322 38.003 37.23C38.0034 37.2298 38.0114 37.2268 38.0117 37.2267C38.0125 37.2264 38.0132 37.2262 38.0139 37.2259C38.0146 37.2256 38.0153 37.2254 38.016 37.2251C38.0203 37.2235 38.016 37.2251 38.0203 37.2235C38.021 37.2233 38.0217 37.223 38.0224 37.2227C38.0231 37.2225 38.0238 37.2222 38.0245 37.2219C38.0247 37.2219 38.0285 37.2205 38.0286 37.2204C38.037 37.2172 38.0527 37.2113 38.0601 37.2086C38.0651 37.2067 38.0846 37.1994 38.0886 37.1979C38.0952 37.1954 38.0954 37.1954 38.1017 37.193C38.1081 37.1906 38.1017 37.193 38.108 37.1906C38.1085 37.1904 38.1091 37.1902 38.1096 37.19C38.1101 37.1898 38.1106 37.1897 38.1111 37.1895C38.1116 37.1893 38.1121 37.1891 38.1126 37.1889C38.1131 37.1887 38.1136 37.1885 38.1141 37.1883C38.1221 37.1853 38.1521 37.1741 38.1561 37.1726C38.1591 37.1715 38.162 37.1704 38.1647 37.1693C38.1662 37.1688 38.1714 37.1668 38.1726 37.1664C38.1731 37.1662 38.1759 37.1652 38.1763 37.165C38.1822 37.1628 38.1739 37.1659 38.1797 37.1637C38.18 37.1636 38.1803 37.1635 38.1806 37.1634C38.1809 37.1633 38.1811 37.1632 38.1814 37.1631C38.1817 37.163 38.182 37.1629 38.1822 37.1628C38.1825 37.1627 38.1828 37.1626 38.183 37.1625C38.1838 37.1622 38.1838 37.1622 38.1846 37.1619C38.1849 37.1618 38.1851 37.1617 38.1854 37.1616C38.1856 37.1615 38.1859 37.1614 38.1861 37.1613C38.2101 37.1523 38.1736 37.166 38.1966 37.1574C38.1981 37.1569 38.1974 37.1571 38.1988 37.1566C38.1995 37.1563 38.2001 37.1561 38.2007 37.1558C38.2039 37.1547 38.1995 37.1563 38.2025 37.1552C38.2028 37.1551 38.2031 37.155 38.2034 37.1549C38.2035 37.1548 38.204 37.1546 38.2041 37.1546C38.2042 37.1545 38.2055 37.1541 38.2055 37.1541C38.2075 37.1533 38.2048 37.1543 38.2067 37.1536C38.2084 37.153 38.2062 37.1538 38.2078 37.1532C38.2079 37.1532 38.2079 37.1531 38.208 37.1531C38.2081 37.1531 38.2082 37.1531 38.2082 37.153C38.2083 37.153 38.2084 37.153 38.2084 37.153C38.2085 37.1529 38.2086 37.1529 38.2086 37.1529C38.2089 37.1528 38.2097 37.1525 38.2097 37.1525C38.2098 37.1525 38.2098 37.1524 38.2098 37.1524C38.2099 37.1524 38.2099 37.1524 38.2099 37.1524C38.21 37.1524 38.2099 37.1524 38.21 37.1524C38.21 37.1524 38.2101 37.1524 38.2101 37.1523C38.2101 37.1523 38.2101 37.1523 38.2101 37.1523C38.2101 37.1523 38.2101 37.1523 38.2101 37.1523C38.2101 37.1523 38.2101 37.1523 37.859 36.216C37.5079 35.2797 37.5079 35.2797 37.5079 35.2797C37.5079 35.2797 37.5079 35.2797 37.5079 35.2797C37.5079 35.2797 37.5078 35.2797 37.5078 35.2797C37.5078 35.2797 37.5078 35.2797 37.5077 35.2797C37.5077 35.2797 37.5077 35.2797 37.5077 35.2798C37.5076 35.2798 37.5076 35.2798 37.5076 35.2798C37.5076 35.2798 37.5075 35.2798 37.5075 35.2798C37.5073 35.2799 37.5073 35.2799 37.507 35.28C37.5068 35.2801 37.507 35.28 37.5067 35.2801C37.5066 35.2801 37.5065 35.2802 37.5064 35.2802C37.5059 35.2804 37.5053 35.2807 37.5045 35.2809C37.5003 35.2825 37.5064 35.2802 37.5019 35.2819C37.4969 35.2838 37.5004 35.2825 37.4944 35.2847C37.494 35.2849 37.4936 35.285 37.4932 35.2852C37.493 35.2852 37.4928 35.2853 37.4926 35.2854C37.4924 35.2855 37.4922 35.2855 37.492 35.2856C37.4918 35.2857 37.4916 35.2858 37.4914 35.2858C37.4912 35.2859 37.491 35.286 37.4908 35.2861C37.4906 35.2862 37.4904 35.2862 37.4902 35.2863C37.4899 35.2864 37.4897 35.2865 37.4895 35.2866C37.4873 35.2874 37.489 35.2867 37.4868 35.2876C37.4853 35.2881 37.4854 35.2881 37.4839 35.2887C37.4399 35.3052 37.5019 35.2819 37.4539 35.2999C37.45 35.3014 37.4532 35.3002 37.4493 35.3016C37.4483 35.302 37.4455 35.3031 37.4445 35.3034C37.4372 35.3062 37.4469 35.3025 37.4395 35.3053C37.4391 35.3055 37.4387 35.3056 37.4383 35.3058C37.4378 35.3059 37.4374 35.3061 37.437 35.3063C37.4366 35.3064 37.4361 35.3066 37.4357 35.3067C37.4352 35.3069 37.4348 35.3071 37.4344 35.3072C37.4274 35.3099 37.4308 35.3086 37.4235 35.3113C37.4148 35.3146 37.4265 35.3102 37.4178 35.3135C37.4154 35.3144 37.4173 35.3136 37.4149 35.3146C37.4144 35.3147 37.4139 35.3149 37.4134 35.3151C37.4129 35.3153 37.4124 35.3155 37.4119 35.3157C37.3585 35.3357 37.2412 35.3797 37.1239 35.4237C37.1221 35.4243 36.9256 35.498 36.9079 35.5047C36.8679 35.5197 36.8874 35.5124 36.8464 35.5277C36.8438 35.5287 36.8332 35.5327 36.8305 35.5337C36.8292 35.5342 36.8279 35.5347 36.8265 35.5352C36.8252 35.5357 36.8239 35.5362 36.8225 35.5367C36.8199 35.5377 36.8172 35.5387 36.8145 35.5397C36.8125 35.5404 36.8084 35.542 36.8064 35.5427C36.7956 35.5468 36.8091 35.5417 36.7983 35.5458C36.7901 35.5488 36.7983 35.5458 36.7901 35.5488C36.7887 35.5493 36.7874 35.5499 36.786 35.5504C36.7846 35.5509 36.7833 35.5514 36.7819 35.5519C36.7655 35.5581 36.7318 35.5707 36.7144 35.5772C36.6914 35.5859 36.7201 35.5751 36.697 35.5837C36.6795 35.5903 36.6971 35.5837 36.6795 35.5903C36.6619 35.5969 36.6883 35.587 36.6707 35.5936C36.6677 35.5947 36.6648 35.5958 36.6618 35.597C36.6499 35.6014 36.6558 35.5992 36.6439 35.6037C36.6318 35.6082 36.6469 35.6025 36.6349 35.6071C36.6326 35.6079 36.6281 35.6096 36.6258 35.6105C36.6182 35.6133 36.6243 35.611 36.6167 35.6139C36.6121 35.6156 36.6121 35.6156 36.6075 35.6173C36.6044 35.6185 36.5922 35.6231 36.589 35.6242C36.5875 35.6248 36.5859 35.6254 36.5844 35.626C36.5828 35.6266 36.5813 35.6271 36.5797 35.6277C36.5786 35.6282 36.5716 35.6308 36.5704 35.6312C36.5613 35.6346 36.5039 35.6561 36.4939 35.6599C36.4553 35.6744 36.3744 35.7047 36.3319 35.7207C36.3293 35.7216 36.3134 35.7276 36.3108 35.7286C36.3095 35.7291 36.3015 35.7321 36.3002 35.7326C36.2984 35.7332 36.2913 35.7359 36.2895 35.7366C36.2825 35.7392 36.2536 35.75 36.2464 35.7527C36.241 35.7547 36.2081 35.7671 36.2025 35.7692C36.1998 35.7702 36.1831 35.7765 36.1803 35.7775C36.1617 35.7845 36.1765 35.7789 36.1579 35.7859C36.1276 35.7973 36.143 35.7915 36.1125 35.8029C36.1049 35.8058 36.0972 35.8087 36.0895 35.8116C36.0876 35.8123 36.0857 35.813 36.0838 35.8137C36.0818 35.8144 36.0799 35.8152 36.078 35.8159C36.0765 35.8164 36.0678 35.8197 36.0664 35.8202C36.0606 35.8224 36.0606 35.8224 36.0547 35.8246C36.0508 35.8261 36.0469 35.8275 36.043 35.829C36.0391 35.8305 36.0235 35.8363 36.0195 35.8378C36.0096 35.8415 36.0176 35.8385 36.0077 35.8422C36.0062 35.8428 35.9973 35.8461 35.9958 35.8467C35.9859 35.8504 35.9938 35.8475 35.9839 35.8512C35.9819 35.8519 35.9799 35.8527 35.9779 35.8534C35.9759 35.8542 35.9739 35.8549 35.9719 35.8557L36.6741 37.7283ZM38.2304 37.1445C38.469 37.049 38.6294 37.0576 38.7588 37.1007L39.3912 35.2033C38.7526 34.9904 38.1023 35.0416 37.4876 35.2875L38.2304 37.1445ZM38.8501 37.1264C39.1123 37.1869 39.2731 37.3123 39.3966 37.5592L41.1854 36.6648C40.7969 35.8877 40.1471 35.3731 39.2999 35.1776L38.8501 37.1264ZM39.4168 37.5976C39.5553 37.8469 39.5083 37.9076 39.5215 37.8613L41.4445 38.4107C41.6284 37.7671 41.4534 37.1451 41.1652 36.6264L39.4168 37.5976ZM39.493 37.9946C39.456 38.2542 39.3992 38.5401 39.3209 38.8535L41.2611 39.3385C41.3535 38.9692 41.4247 38.6151 41.4729 38.2774L39.493 37.9946ZM39.3966 38.6488C39.2664 38.9092 39.1761 39.1873 39.1184 39.4759L41.0796 39.8681C41.1072 39.73 41.1449 39.6242 41.1854 39.5432L39.3966 38.6488ZM39.1289 39.4295C39.0947 39.5659 39.0393 39.7527 38.9583 39.9958L40.8557 40.6282C40.9453 40.3593 41.0179 40.1194 41.0691 39.9145L39.1289 39.4295ZM38.9823 39.9313C38.6701 40.6895 38.341 41.6127 37.9946 42.6952L39.8994 43.3048C40.2357 42.2539 40.5466 41.3851 40.8317 40.6927L38.9823 39.9313ZM37.987 42.72C37.6909 43.7353 37.3734 44.7724 37.0346 45.8312L38.9394 46.4408C39.2833 45.3663 39.6058 44.3127 39.907 43.28L37.987 42.72ZM37.0453 45.7997C36.8283 46.407 36.6517 46.9363 36.5172 47.3847L38.4328 47.9593C38.5543 47.5544 38.719 47.0596 38.9287 46.4723L37.0453 45.7997ZM36.5172 47.3847C36.3858 47.8225 36.2748 48.2218 36.1849 48.5815L38.1251 49.0665C38.2059 48.7436 38.3082 48.3749 38.4328 47.9593L36.5172 47.3847ZM37.361 49.8026C38.3162 49.6015 39.593 49.0538 41.1418 48.2364L40.2082 46.4676C38.685 47.2716 37.6151 47.7052 36.949 47.8455L37.361 49.8026ZM41.1558 48.2288C42.4985 47.4925 43.9238 46.6502 45.4312 45.7026L44.3668 44.0094C42.8876 44.9392 41.4968 45.7608 40.1942 46.4752L41.1558 48.2288ZM45.4374 45.6987C46.9809 44.7126 48.5454 43.6838 50.1309 42.6126L49.0111 40.9554C47.4393 42.0175 45.8891 43.0368 44.3606 44.0133L45.4374 45.6987ZM50.101 42.632C50.4423 42.4187 50.7837 42.2053 51.125 41.992L50.065 40.296C49.7237 40.5093 49.3823 40.7227 49.041 40.936L50.101 42.632ZM51.0806 42.0182C51.5167 41.7759 51.9146 41.5037 52.2698 41.1993L50.9682 39.6807C50.7261 39.8883 50.4413 40.0854 50.1094 40.2698L51.0806 42.0182ZM52.1559 41.2837C52.4078 41.1234 52.6183 41.0966 52.8485 41.1541L53.3335 39.2139C52.5397 39.0154 51.7689 39.1593 51.0821 39.5963L52.1559 41.2837ZM52.9389 41.1724C53.2117 41.2143 53.3849 41.3291 53.5273 41.5529L55.2147 40.4791C54.7597 39.7642 54.0797 39.3243 53.2431 39.1956L52.9389 41.1724ZM53.5518 41.5895C53.6818 41.7752 53.7157 41.9462 53.6569 42.1815L55.5971 42.6665C55.7943 41.8778 55.6575 41.1101 55.1902 40.4425L53.5518 41.5895ZM53.6406 42.2596C53.6056 42.4698 53.5074 42.6377 53.2581 42.7963L54.3319 44.4837C55.0213 44.0449 55.4778 43.4022 55.6134 42.5884L53.6406 42.2596ZM53.195 42.84C52.8696 43.084 52.5221 43.3294 52.1523 43.576L53.2617 45.2401C53.6599 44.9746 54.0377 44.708 54.395 44.44L53.195 42.84ZM52.177 43.56C51.8263 43.7792 51.4553 44.0193 51.0643 44.2799L52.1737 45.944C52.5507 45.6927 52.9051 45.4635 53.237 45.256L52.177 43.56ZM51.0694 44.2766C49.4515 45.341 47.8766 46.3625 46.3446 47.3413L47.4214 49.0267C48.9614 48.0428 50.5438 47.0164 52.1686 45.9474L51.0694 44.2766ZM46.3446 47.3413C44.8273 48.3107 43.3998 49.1501 42.0618 49.8609L43.0002 51.6271C44.3928 50.8873 45.8667 50.02 47.4214 49.0267L46.3446 47.3413ZM42.0675 49.8579C39.3276 51.2911 37.309 51.92 35.939 51.92V53.92C37.8116 53.92 40.1878 53.0982 42.9945 51.6301L42.0675 49.8579ZM74.4445 48.376L74.7607 47.4273L74.7065 47.4092L74.6505 47.3974L74.4445 48.376ZM72.7165 46.904L71.7735 47.2368L71.7834 47.2648L71.7949 47.2921L72.7165 46.904ZM72.9085 44.472L72.0056 44.0421L71.9971 44.0599L71.9894 44.0781L72.9085 44.472ZM74.5725 41.464L73.7404 40.9093L73.7304 40.9244L73.7208 40.9399L74.5725 41.464ZM75.2765 40.312L74.419 39.7975L74.4104 39.8118L74.4023 39.8264L75.2765 40.312ZM75.9165 39.16L75.0844 38.6053L75.0499 38.6571L75.0221 38.7128L75.9165 39.16ZM76.1085 38.84L77.0029 39.2872L77.0347 39.2236L77.0572 39.1562L76.1085 38.84ZM76.2365 38.52L77.1309 38.9672L77.7364 37.7562L76.4009 37.5336L76.2365 38.52ZM71.7565 38.392L71.8077 39.3907L71.8195 39.3901L71.8313 39.3892L71.7565 38.392ZM66.1245 39.352L66.3723 40.3208L66.3809 40.3186L66.1245 39.352ZM60.1725 41.208L60.5003 42.1528L60.5112 42.1489L60.1725 41.208ZM53.5165 43.832L53.8582 44.7718L53.8877 44.7611L53.9164 44.7485L53.5165 43.832ZM52.1085 43.832L51.7668 44.7718L52.1085 43.832ZM51.0845 42.872L51.9949 42.4582L51.9798 42.4251L51.9624 42.3931L51.0845 42.872ZM51.0205 41.4L51.9436 41.7846L51.9489 41.7719L51.9538 41.759L51.0205 41.4ZM52.0445 40.312L52.3862 41.2518L52.4197 41.2396L52.4522 41.2251L52.0445 40.312ZM58.8925 37.56L59.2253 38.503L59.2357 38.4993L58.8925 37.56ZM65.1645 35.64L65.3971 36.6127L65.4089 36.6097L65.1645 35.64ZM78.0285 35L77.7685 35.9656L77.7761 35.9676L78.0285 35ZM80.0765 36.792L81.0021 36.4134L80.0765 36.792ZM77.8365 43.512L76.9869 42.9846L76.9626 43.0237L76.9421 43.0648L77.8365 43.512ZM77.3885 44.28L76.4941 43.8328L75.56 45.7008L77.6009 45.2572L77.3885 44.28ZM81.7405 43L82.0567 43.9487L81.7405 43ZM89.6765 40.184L89.3348 39.2442L89.3319 39.2453L89.6765 40.184ZM91.0845 40.312L90.6057 41.1899L90.6516 41.215L90.6999 41.2351L91.0845 40.312ZM92.1085 41.4L91.1598 41.7162L91.1764 41.766L91.1981 41.8138L92.1085 41.4ZM92.1085 42.872L93.0189 43.2858L93.0255 43.2713L93.0316 43.2566L92.1085 42.872ZM90.9565 43.896L91.285 44.8405L91.3003 44.8352L91.3155 44.8293L90.9565 43.896ZM85.5805 45.752L85.9042 46.6982L85.5805 45.752ZM81.2285 47.16L81.5158 48.1178H81.5159L81.2285 47.16ZM77.3245 48.248L77.5116 49.2303L77.534 49.2261L77.5561 49.2208L77.3245 48.248ZM75.2765 47.504C75.0739 47.504 74.9045 47.4752 74.7607 47.4273L74.1283 49.3247C74.4965 49.4474 74.8817 49.504 75.2765 49.504V47.504ZM74.6505 47.3974C74.1835 47.2991 73.8615 47.0464 73.6381 46.5159L71.7949 47.2921C72.2542 48.3829 73.0841 49.1115 74.2385 49.3545L74.6505 47.3974ZM73.6595 46.5712C73.5076 46.1409 73.5151 45.5953 73.8276 44.8659L71.9894 44.0781C71.5339 45.1407 71.4134 46.2164 71.7735 47.2368L73.6595 46.5712ZM73.8114 44.9019C74.2188 44.0464 74.7548 43.0758 75.4242 41.9881L73.7208 40.9399C73.0249 42.0709 72.4516 43.1056 72.0056 44.0421L73.8114 44.9019ZM75.4045 42.0187C75.6748 41.6134 75.9236 41.2064 76.1507 40.7976L74.4023 39.8264C74.2028 40.1856 73.9822 40.5466 73.7404 40.9093L75.4045 42.0187ZM76.134 40.8265C76.3995 40.3841 76.626 39.9771 76.8109 39.6072L75.0221 38.7128C74.8657 39.0256 74.6656 39.3866 74.419 39.7975L76.134 40.8265ZM76.7486 39.7147C76.8448 39.5703 76.934 39.425 77.0029 39.2872L75.2141 38.3928C75.1976 38.4256 75.1589 38.4937 75.0844 38.6053L76.7486 39.7147ZM77.0572 39.1562C77.0905 39.0563 77.1161 38.9969 77.1309 38.9672L75.3421 38.0728C75.2716 38.2138 75.2119 38.3677 75.1598 38.5238L77.0572 39.1562ZM76.4009 37.5336C75.0214 37.3037 73.4445 37.2626 71.6817 37.3948L71.8313 39.3892C73.4818 39.2654 74.8916 39.3096 76.0721 39.5064L76.4009 37.5336ZM71.7053 37.3933C69.955 37.4831 68.0071 37.8179 65.8681 38.3854L66.3809 40.3186C68.4232 39.7767 70.23 39.4716 71.8077 39.3907L71.7053 37.3933ZM65.8767 38.3832C64.006 38.8617 61.9913 39.4904 59.8338 40.2671L60.5112 42.1489C62.6203 41.3896 64.5737 40.7809 66.3723 40.3208L65.8767 38.3832ZM59.8447 40.2632C57.7262 40.9982 55.4833 41.8827 53.1166 42.9155L53.9164 44.7485C56.243 43.7333 58.4374 42.8684 60.5003 42.1528L59.8447 40.2632ZM53.1748 42.8922C52.9262 42.9826 52.6988 42.9826 52.4502 42.8922L51.7668 44.7718C52.4568 45.0227 53.1682 45.0227 53.8582 44.7718L53.1748 42.8922ZM52.4502 42.8922C52.2424 42.8166 52.101 42.6918 51.9949 42.4582L50.1741 43.2858C50.4946 43.9909 51.0359 44.506 51.7668 44.7718L52.4502 42.8922ZM51.9624 42.3931C51.8577 42.2013 51.8418 42.029 51.9436 41.7846L50.0974 41.0154C49.7726 41.795 49.7993 42.6041 50.2066 43.3509L51.9624 42.3931ZM51.9538 41.759C52.085 41.4181 52.2409 41.3047 52.3862 41.2518L51.7028 39.3722C50.9095 39.6607 50.3827 40.2726 50.0872 41.041L51.9538 41.759ZM52.4522 41.2251C54.8201 40.168 57.0777 39.261 59.2253 38.503L58.5597 36.617C56.3553 37.395 54.0475 38.3227 51.6368 39.3989L52.4522 41.2251ZM59.2357 38.4993C61.4241 37.6997 63.4776 37.0716 65.3971 36.6126L64.9319 34.6674C62.9261 35.1471 60.7982 35.799 58.5493 36.6207L59.2357 38.4993ZM65.4089 36.6097C70.5769 35.3072 74.6738 35.1324 77.7685 35.9656L78.2885 34.0344C74.7272 33.0756 70.2481 33.3275 64.9201 34.6703L65.4089 36.6097ZM77.7761 35.9676C78.4529 36.1442 78.8861 36.5233 79.151 37.1706L81.0021 36.4134C80.4989 35.1834 79.5668 34.3678 78.2809 34.0324L77.7761 35.9676ZM79.151 37.1706C79.4011 37.782 79.3856 38.5261 78.9195 39.4942L80.7215 40.3618C81.3647 39.0259 81.5199 37.6793 81.0021 36.4134L79.151 37.1706ZM78.9195 39.4942C78.3822 40.6101 77.7386 41.7735 76.9869 42.9846L78.6861 44.0394C79.4704 42.7758 80.1494 41.5499 80.7215 40.3618L78.9195 39.4942ZM76.9421 43.0648C76.9257 43.0976 76.8869 43.1657 76.8125 43.2773L78.4765 44.3867C78.5728 44.2423 78.662 44.097 78.7309 43.9592L76.9421 43.0648ZM76.8125 43.2773C76.6994 43.4468 76.5938 43.6334 76.4941 43.8328L78.2829 44.7272C78.3539 44.5852 78.4189 44.4732 78.4765 44.3867L76.8125 43.2773ZM77.6009 45.2572C78.637 45.0319 80.1295 44.5911 82.0567 43.9487L81.4243 42.0513C79.5115 42.6889 78.1026 43.1014 77.1761 43.3028L77.6009 45.2572ZM82.0567 43.9487C83.9908 43.304 86.647 42.3613 90.0211 41.1227L89.3319 39.2453C85.9647 40.4813 83.3302 41.416 81.4243 42.0513L82.0567 43.9487ZM90.0182 41.1238C90.1971 41.0588 90.3682 41.0604 90.6057 41.1899L91.5634 39.4341C90.8621 39.0516 90.0946 38.9679 89.3348 39.2442L90.0182 41.1238ZM90.6999 41.2351C90.9534 41.3407 91.0835 41.4871 91.1598 41.7162L93.0572 41.0838C92.7922 40.2889 92.2396 39.7099 91.4691 39.3889L90.6999 41.2351ZM91.1981 41.8138C91.2871 42.0096 91.301 42.21 91.1854 42.4874L93.0316 43.2566C93.3427 42.51 93.3565 41.729 93.0189 40.9862L91.1981 41.8138ZM91.1981 42.4582C91.11 42.652 90.9478 42.8279 90.5975 42.9627L91.3155 44.8293C92.0746 44.5374 92.6803 44.0306 93.0189 43.2858L91.1981 42.4582ZM90.628 42.9515C88.6666 43.6337 86.8762 44.2518 85.2568 44.8058L85.9042 46.6982C87.5274 46.1428 89.3211 45.5236 91.285 44.8405L90.628 42.9515ZM85.2568 44.8058C83.6444 45.3575 82.2061 45.8227 80.9412 46.2022L81.5159 48.1178C82.8109 47.7293 84.274 47.2559 85.9042 46.6982L85.2568 44.8058ZM80.9412 46.2022C79.2393 46.7127 77.9601 47.0687 77.0929 47.2752L77.5561 49.2208C78.4809 49.0006 79.8044 48.6313 81.5158 48.1178L80.9412 46.2022ZM77.1374 47.2657C76.2569 47.4334 75.649 47.504 75.2765 47.504V49.504C75.8426 49.504 76.6001 49.404 77.5116 49.2303L77.1374 47.2657Z" fill="#FFFBF0" mask="url(#path-3-outside-2_61_52)"/>
<defs>
<filter id="filter0_d_61_52" x="0.888184" y="33.528" width="93.5405" height="22.392" filterUnits="userSpaceOnUse" color-interpolation-filters="sRGB">
<feFlood flood-opacity="0" result="BackgroundImageFix"/>
<feColorMatrix in="SourceAlpha" type="matrix" values="0 0 0 0 0 0 0 0 0 0 0 0 0 0 0 0 0 0 127 0" result="hardAlpha"/>
<feOffset dx="2" dy="3"/>
<feComposite in2="hardAlpha" operator="out"/>
<feColorMatrix type="matrix" values="0 0 0 0 0.192157 0 0 0 0 0.192157 0 0 0 0 0.192157 0 0 0 1 0"/>
<feBlend mode="normal" in2="BackgroundImageFix" result="effect1_dropShadow_61_52"/>
<feBlend mode="normal" in="SourceGraphic" in2="effect1_dropShadow_61_52" result="shape"/>
</filter>
</defs>
</svg>
